<svg width="20" height="19" viewBox="0 0 20 19" fill="none" xmlns="http://www.w3.org/2000/svg">
<path fill-rule="evenodd" clip-rule="evenodd" d="M6.02151 0.0380648C6.02151 0.0661395 7.90585 6.12545 8.4685 7.90663C8.48895 7.97138 8.34174 7.97498 5.74065 7.97349L2.9912 7.97197L2.24891 6.97641L1.50659 5.98089H0.753314C0.338964 5.98089 0 5.99395 0 6.00991C0 6.02586 0.222444 6.81766 0.494311 7.76946L0.988583 9.5L0.494311 11.2305C0.222444 12.1823 0 12.9741 0 12.9901C0 13.006 0.338964 13.0191 0.753314 13.0191H1.50659L2.24891 12.0236L2.9912 11.028L5.74065 11.0265C8.34174 11.025 8.48895 11.0286 8.4685 11.0934C7.90585 12.8745 6.02151 18.9339 6.02151 18.9619C6.02151 18.9877 6.37271 19.001 7.02835 18.9999L8.03519 18.9983L10.5181 15.0133L13.001 11.0283L15.738 11.0264C17.3327 11.0253 18.573 11.0085 18.7097 10.9861C19.222 10.9023 19.654 10.576 19.8907 10.094C19.9871 9.89778 20 9.82755 20 9.5C20 9.17245 19.9871 9.10222 19.8907 8.90597C19.654 8.42397 19.222 8.09768 18.7097 8.01388C18.573 7.99152 17.3327 7.9747 15.738 7.97361L13.001 7.97173L10.5181 3.98674L8.03519 0.00173986L7.02835 5.85e-05C6.37271 -0.000997232 6.02151 0.0122581 6.02151 0.0380648Z" fill="#27272A"/>
</svg>
