<svg width="22" height="17" viewBox="0 0 22 17" fill="none" xmlns="http://www.w3.org/2000/svg">
<path d="M20 0.587524H2C1.70163 0.587524 1.41548 0.706051 1.2045 0.917029C0.993526 1.12801 0.875 1.41416 0.875 1.71252V14.4625C0.875 14.9598 1.07254 15.4367 1.42417 15.7883C1.77581 16.14 2.25272 16.3375 2.75 16.3375H19.25C19.7473 16.3375 20.2242 16.14 20.5758 15.7883C20.9275 15.4367 21.125 14.9598 21.125 14.4625V1.71252C21.125 1.41416 21.0065 1.12801 20.7955 0.917029C20.5845 0.706051 20.2984 0.587524 20 0.587524ZM17.1078 2.83752L11 8.43627L4.89219 2.83752H17.1078ZM3.125 14.0875V4.27002L10.2397 10.7922C10.4472 10.9825 10.7185 11.088 11 11.088C11.2815 11.088 11.5528 10.9825 11.7603 10.7922L18.875 4.27002V14.0875H3.125Z" fill="white"/>
</svg>
