<svg width="29" height="35" viewBox="0 0 29 35" fill="none" xmlns="http://www.w3.org/2000/svg">
<path d="M23.2328 22.4218C22.9087 24.2322 22.0376 25.9 20.7369 27.2004C19.4363 28.5008 17.7684 29.3715 15.9578 29.6952C15.8891 29.7062 15.8196 29.712 15.75 29.7124C15.4364 29.7123 15.1344 29.5944 14.9037 29.382C14.673 29.1697 14.5306 28.8784 14.5046 28.5659C14.4787 28.2534 14.5711 27.9426 14.7636 27.6951C14.956 27.4475 15.2345 27.2814 15.5437 27.2296C18.1328 26.7936 20.3297 24.5968 20.7687 22.003C20.8243 21.6761 21.0074 21.3845 21.2779 21.1926C21.5483 21.0007 21.884 20.9241 22.2109 20.9796C22.5379 21.0351 22.8294 21.2183 23.0213 21.4887C23.2133 21.7592 23.2899 22.0948 23.2344 22.4218H23.2328ZM28.25 20.9624C28.25 24.6091 26.8013 28.1065 24.2227 30.6851C21.6441 33.2637 18.1467 34.7124 14.5 34.7124C10.8533 34.7124 7.35591 33.2637 4.77728 30.6851C2.19866 28.1065 0.75 24.6091 0.75 20.9624C0.75 16.5999 2.46875 12.139 5.85313 7.70458C5.96025 7.56417 6.09592 7.44805 6.25119 7.36388C6.40645 7.27972 6.57779 7.2294 6.75391 7.21626C6.93004 7.20312 7.10695 7.22746 7.27298 7.28766C7.43902 7.34786 7.59041 7.44256 7.71719 7.56552L11.4859 11.2233L14.9234 1.78427C14.9921 1.59601 15.105 1.42702 15.2527 1.29155C15.4004 1.15608 15.5785 1.05809 15.7719 1.00586C15.9654 0.953623 16.1686 0.948668 16.3644 0.991411C16.5601 1.03415 16.7428 1.12334 16.8969 1.25146C20.3141 4.08739 28.25 11.6733 28.25 20.9624ZM25.75 20.9624C25.75 13.7608 20.1578 7.53739 16.6547 4.34833L13.175 13.8905C13.1036 14.0865 12.9843 14.2615 12.8279 14.3996C12.6715 14.5376 12.4831 14.6344 12.2798 14.681C12.0765 14.7276 11.8647 14.7225 11.6638 14.6663C11.463 14.6102 11.2793 14.5046 11.1297 14.3593L7.00937 10.3624C4.51406 13.964 3.25 17.5249 3.25 20.9624C3.25 23.9461 4.43526 26.8076 6.54505 28.9173C8.65483 31.0271 11.5163 32.2124 14.5 32.2124C17.4837 32.2124 20.3452 31.0271 22.455 28.9173C24.5647 26.8076 25.75 23.9461 25.75 20.9624Z" fill="white"/>
</svg>
