<svg width="36" height="33" viewBox="0 0 36 33" fill="none" xmlns="http://www.w3.org/2000/svg">
<path d="M34.5625 10.9812C34.2105 10.5823 33.7777 10.2629 33.2928 10.0441C32.8079 9.82537 32.282 9.7123 31.75 9.7124H23V7.2124C23 5.5548 22.3415 3.96509 21.1694 2.79299C19.9973 1.62088 18.4076 0.962403 16.75 0.962403C16.5178 0.962236 16.2901 1.02676 16.0925 1.14875C15.8949 1.27073 15.7352 1.44535 15.6313 1.65303L9.72813 13.4624H3C2.33696 13.4624 1.70107 13.7258 1.23223 14.1946C0.763392 14.6635 0.5 15.2994 0.5 15.9624V29.7124C0.5 30.3754 0.763392 31.0113 1.23223 31.4802C1.70107 31.949 2.33696 32.2124 3 32.2124H29.875C30.7886 32.2127 31.6709 31.8795 32.3562 31.2753C33.0415 30.6712 33.4827 29.8376 33.5969 28.9312L35.4719 13.9312C35.5383 13.4031 35.4916 12.8669 35.3348 12.3582C35.178 11.8496 34.9148 11.3802 34.5625 10.9812ZM3 15.9624H9.25V29.7124H3V15.9624ZM32.9906 13.6187L31.1156 28.6187C31.0776 28.9208 30.9305 29.1987 30.7021 29.4C30.4736 29.6014 30.1795 29.7125 29.875 29.7124H11.75V15.0077L17.4859 3.53428C18.3361 3.70443 19.101 4.1639 19.6505 4.8345C20.2001 5.5051 20.5002 6.3454 20.5 7.2124V10.9624C20.5 11.2939 20.6317 11.6119 20.8661 11.8463C21.1005 12.0807 21.4185 12.2124 21.75 12.2124H31.75C31.9274 12.2123 32.1027 12.25 32.2644 12.323C32.4261 12.3959 32.5704 12.5024 32.6878 12.6354C32.8051 12.7685 32.8928 12.9249 32.945 13.0944C32.9973 13.264 33.0128 13.4427 32.9906 13.6187Z" fill="#FEFAF5"/>
</svg>
