<svg width="46" height="21" viewBox="0 0 46 21" fill="none" xmlns="http://www.w3.org/2000/svg">
<path d="M0.631128 20.5859V18.1217H5.27645V3.10933H6.74936L1.08433 6.565V3.73249L6.09788 0.616723H8.22226V18.1217H12.5843V20.5859H0.631128ZM22.0055 20.8409C19.7018 20.8409 17.9078 20.3499 16.6238 19.368C15.3397 18.386 14.6977 17.017 14.6977 15.2608C14.6977 13.8634 15.1225 12.7116 15.9723 11.8051C16.822 10.8799 17.9362 10.3228 19.3146 10.134V10.6438C18.0683 10.3795 17.0675 9.80351 16.3122 8.91599C15.5757 8.02846 15.2075 6.95211 15.2075 5.68692C15.2075 4.02518 15.8118 2.72222 17.0203 1.77805C18.2288 0.833883 19.8906 0.361797 22.0055 0.361797C24.1394 0.361797 25.8105 0.833883 27.0191 1.77805C28.2276 2.72222 28.8319 4.02518 28.8319 5.68692C28.8319 6.95211 28.4731 8.03791 27.7555 8.94431C27.0568 9.83183 26.0938 10.3889 24.8664 10.6155V10.134C26.226 10.3228 27.3118 10.8799 28.1238 11.8051C28.9357 12.7116 29.3417 13.8634 29.3417 15.2608C29.3417 17.017 28.6997 18.386 27.4156 19.368C26.1316 20.3499 24.3282 20.8409 22.0055 20.8409ZM22.0055 18.5182C23.5351 18.5182 24.6775 18.235 25.4329 17.6684C26.1882 17.0831 26.5659 16.2144 26.5659 15.0625C26.5659 13.9106 26.1882 13.0515 25.4329 12.485C24.6775 11.9184 23.5351 11.6352 22.0055 11.6352C20.476 11.6352 19.3335 11.9184 18.5782 12.485C17.8229 13.0515 17.4452 13.9106 17.4452 15.0625C17.4452 16.2144 17.8229 17.0831 18.5782 17.6684C19.3524 18.235 20.4949 18.5182 22.0055 18.5182ZM22.0055 9.31254C23.3274 9.31254 24.3282 9.01984 25.008 8.43446C25.7067 7.83019 26.056 7.00876 26.056 5.97017C26.056 4.95047 25.7067 4.14792 25.008 3.56254C24.3282 2.97715 23.3274 2.68446 22.0055 2.68446C20.7026 2.68446 19.7018 2.97715 19.0031 3.56254C18.3044 4.14792 17.955 4.95047 17.955 5.97017C17.955 7.00876 18.3044 7.83019 19.0031 8.43446C19.7018 9.01984 20.7026 9.31254 22.0055 9.31254ZM37.2051 19.5096V13.5047H31.2851V11.4086H37.2051V5.5453H39.3578V11.4086H45.2777V13.5047H39.3578V19.5096H37.2051Z" fill="#FEFAF5"/>
</svg>
