<svg width="51" height="50" viewBox="0 0 51 50" fill="none" xmlns="http://www.w3.org/2000/svg">
<rect x="0.5" width="50" height="50" rx="25" fill="#E0EFEA"/>
<g clip-path="url(#clip0_1023_32085)">
<path d="M42.3423 21.166C42.3072 21.0849 42.2547 21.0126 42.1884 20.9542C42.1221 20.8957 42.0438 20.8527 41.959 20.828C41.8742 20.8034 41.7849 20.7978 41.6977 20.8116C41.6104 20.8254 41.5273 20.8583 41.4543 20.908C39.5178 22.3487 37.269 23.3128 34.8903 23.722C31.6683 24.244 28.8003 24.868 26.3163 27.22C25.7104 27.8016 25.193 28.4686 24.7803 29.2C24.2344 28.1324 23.5146 27.1631 22.6503 26.332C20.4723 24.31 17.9523 23.77 15.1263 23.332C13.0595 22.9878 11.1016 22.166 9.40826 20.932C9.33521 20.8823 9.25209 20.8494 9.16484 20.8356C9.0776 20.8218 8.98838 20.8274 8.90355 20.852C8.81872 20.8767 8.74038 20.9197 8.67413 20.9782C8.60787 21.0366 8.55533 21.1089 8.52026 21.19C5.68226 27.79 8.86226 36.946 16.3623 39.28C18.8017 39.9812 21.3836 40.0226 23.8443 39.4C23.9774 39.3671 24.0952 39.2897 24.1782 39.1805C24.2612 39.0713 24.3043 38.9371 24.3003 38.8C24.3003 34.972 24.6603 32.56 25.3023 30.88L25.3383 30.796C25.7242 29.7686 26.3399 28.843 27.1383 28.09C29.3643 25.972 32.0463 25.396 35.0703 24.904C37.3721 24.5164 39.5624 23.6341 41.4903 22.318C44.3223 30.334 39.7503 42.544 26.7003 41.8C28.7806 37.6876 31.8789 34.1762 35.7003 31.6C35.7694 31.5571 35.8292 31.5005 35.8758 31.4337C35.9224 31.367 35.9549 31.2915 35.9714 31.2117C35.9879 31.132 35.988 31.0497 35.9717 30.97C35.9554 30.8902 35.923 30.8146 35.8765 30.7477C35.8301 30.6809 35.7705 30.6242 35.7014 30.5811C35.6323 30.538 35.5552 30.5094 35.4747 30.4971C35.3942 30.4848 35.3121 30.489 35.2333 30.5094C35.1544 30.5298 35.0806 30.5661 35.0163 30.616C27.6603 35.656 25.3503 41.836 25.2543 42.094C25.2227 42.18 25.2112 42.272 25.2207 42.3632C25.2302 42.4543 25.2604 42.542 25.3091 42.6196C25.3577 42.6972 25.4235 42.7627 25.5014 42.8109C25.5792 42.8592 25.6671 42.889 25.7583 42.898C28.3419 43.1716 30.9543 42.91 33.4323 42.13C41.9163 39.43 45.5763 28.852 42.3423 21.166ZM23.1003 37.054C22.1823 35.56 19.8063 32.416 15.0483 29.2C14.9162 29.1109 14.7541 29.0779 14.5977 29.1083C14.4413 29.1386 14.3034 29.2299 14.2143 29.362C14.1252 29.4941 14.0922 29.6561 14.1225 29.8125C14.1529 29.969 14.2442 30.1069 14.3763 30.196C20.2323 34.18 22.3443 38.074 22.5423 38.446C12.0063 40.192 6.72626 29.8 9.36026 22.306C11.041 23.4236 12.9416 24.1683 14.9343 24.49C17.6583 24.922 19.9023 25.402 21.8283 27.196C22.8273 28.1643 23.6086 29.3342 24.1203 30.628C23.445 32.7032 23.1008 34.8717 23.1003 37.054Z" fill="#445F3A"/>
<path d="M25.0746 25.42C25.1304 25.4762 25.1967 25.5209 25.2698 25.5513C25.343 25.5818 25.4214 25.5975 25.5006 25.5975C25.5798 25.5975 25.6582 25.5818 25.7313 25.5513C25.8044 25.5209 25.8708 25.4762 25.9266 25.42L33.9546 17.302C37.6746 13.546 35.1006 7 29.7006 7C28.9159 7.00524 28.1402 7.16717 27.419 7.47627C26.6978 7.78537 26.0455 8.23541 25.5006 8.8C24.9494 8.23907 24.292 7.79354 23.5668 7.48941C22.8415 7.18529 22.063 7.02865 21.2766 7.02865C20.4902 7.02865 19.7116 7.18529 18.9864 7.48941C18.2612 7.79354 17.6038 8.23907 17.0526 8.8C15.9306 9.93641 15.3015 11.4691 15.3015 13.066C15.3015 14.6629 15.9306 16.1956 17.0526 17.332L25.0746 25.42ZM17.9046 9.616C18.3451 9.16809 18.8705 8.81236 19.4499 8.56954C20.0293 8.32671 20.6513 8.20166 21.2796 8.20166C21.9078 8.20166 22.5298 8.32671 23.1093 8.56954C23.6887 8.81236 24.214 9.16809 24.6546 9.616L25.0746 10.036C25.1304 10.0922 25.1967 10.1369 25.2698 10.1673C25.343 10.1978 25.4214 10.2135 25.5006 10.2135C25.5798 10.2135 25.6582 10.1978 25.7313 10.1673C25.8044 10.1369 25.8708 10.0922 25.9266 10.036L26.3526 9.61C27.0281 8.95248 27.8823 8.50842 28.8085 8.33322C29.7348 8.15802 30.6921 8.25943 31.5611 8.62482C32.4301 8.9902 33.1722 9.60338 33.695 10.3878C34.2177 11.1723 34.4979 12.0933 34.5006 13.036C34.5056 14.3161 34.0029 15.546 33.1026 16.456L25.5006 24.148L17.9046 16.456C17.0047 15.5452 16.5 14.3164 16.5 13.036C16.5 11.7556 17.0047 10.5268 17.9046 9.616Z" fill="#445F3A"/>
<path d="M18.9001 15.46C19.0105 15.4592 19.1186 15.4279 19.2123 15.3696C19.3061 15.3113 19.382 15.2283 19.4316 15.1297C19.4813 15.031 19.5027 14.9206 19.4936 14.8106C19.4845 14.7005 19.4452 14.5951 19.3801 14.506C19.033 14.0323 18.8654 13.4508 18.9072 12.8651C18.949 12.2794 19.1974 11.7276 19.6081 11.308C19.6636 11.252 19.7076 11.1857 19.7375 11.1128C19.7675 11.0398 19.7827 10.9617 19.7824 10.8829C19.7821 10.804 19.7663 10.726 19.7359 10.6533C19.7055 10.5806 19.661 10.5145 19.6051 10.459C19.5491 10.4034 19.4828 10.3594 19.4099 10.3295C19.3369 10.2996 19.2588 10.2844 19.18 10.2846C19.1011 10.2849 19.0231 10.3007 18.9504 10.3312C18.8777 10.3616 18.8116 10.406 18.7561 10.462C18.145 11.0864 17.7757 11.9077 17.7141 12.7793C17.6526 13.6508 17.9028 14.5159 18.4201 15.22C18.476 15.2945 18.5484 15.355 18.6318 15.3966C18.7151 15.4383 18.8069 15.46 18.9001 15.46ZM21.3001 10.6C21.4621 10.6 21.6229 10.618 21.7801 10.654C21.9379 10.684 22.1011 10.6509 22.2347 10.5618C22.3683 10.4727 22.4617 10.3348 22.4947 10.1776C22.5277 10.0204 22.4977 9.85658 22.4112 9.72127C22.3247 9.58597 22.1886 9.48999 22.0321 9.45398C21.7902 9.41396 21.5452 9.39589 21.3001 9.39998C21.141 9.39998 20.9883 9.4632 20.8758 9.57572C20.7633 9.68824 20.7001 9.84085 20.7001 9.99998C20.7001 10.1591 20.7633 10.3117 20.8758 10.4242C20.9883 10.5368 21.141 10.6 21.3001 10.6Z" fill="#445F3A"/>
</g>
<defs>
<clipPath id="clip0_1023_32085">
<rect width="36" height="36" fill="white" transform="translate(7.5 7)"/>
</clipPath>
</defs>
</svg>
