<svg width="281" height="50" viewBox="0 0 281 50" fill="none" xmlns="http://www.w3.org/2000/svg">
<path d="M6.0643 37L3.37634 14.1196H7.5394L8.45724 23.7241L9.14562 32.6403H9.3423L13.2103 24.2814L18.2912 14.1196H22.6838L10.8174 37H6.0643ZM26.5223 37.3934C24.2059 37.3934 22.4576 36.7487 21.2775 35.4593C20.1193 34.17 19.5402 32.378 19.5402 30.0834C19.5402 28.7067 19.7587 27.3845 20.1958 26.117C20.6329 24.8277 21.2448 23.6913 22.0315 22.7079C22.8401 21.7245 23.8016 20.9487 24.9161 20.3805C26.0525 19.7905 27.32 19.4955 28.7186 19.4955C29.3961 19.4955 30.0844 19.5829 30.7837 19.7577C31.4831 19.9107 32.1168 20.1729 32.685 20.5444C33.2532 20.8941 33.723 21.3749 34.0945 21.9868C34.466 22.5987 34.6518 23.3417 34.6518 24.2158C34.6518 26.0078 33.7667 27.4064 31.9966 28.4116C30.2483 29.4169 27.4402 29.9632 23.5721 30.0506C23.5066 30.4877 23.4738 30.8046 23.4738 31.0013C23.4738 31.941 23.736 32.6949 24.2605 33.2631C24.785 33.8313 25.6373 34.1154 26.8174 34.1154C27.6696 34.1154 28.4454 33.9296 29.1447 33.5581C29.8441 33.1866 30.5652 32.5419 31.3082 31.6241L33.7667 33.6564C32.6959 35.0332 31.5705 36.0057 30.3904 36.5739C29.2322 37.1202 27.9428 37.3934 26.5223 37.3934ZM28.4564 22.5768C27.3637 22.5768 26.4349 22.9374 25.6701 23.6585C24.9052 24.3797 24.4026 25.3631 24.1622 26.6087L23.9983 27.4282C25.3969 27.3627 26.5333 27.2534 27.4074 27.1004C28.3034 26.9256 28.9918 26.718 29.4725 26.4776C29.9752 26.2372 30.3139 25.9531 30.4887 25.6253C30.6636 25.2975 30.751 24.926 30.751 24.5108C30.751 24.1175 30.6745 23.8006 30.5215 23.5602C30.3904 23.298 30.2156 23.1013 29.997 22.9702C29.7785 22.8172 29.5272 22.7188 29.2431 22.6751C28.9808 22.6096 28.7186 22.5768 28.4564 22.5768ZM50.4418 37.8851C50.4418 38.6281 50.2888 39.3602 49.9828 40.0813C49.6987 40.8025 49.1961 41.4472 48.475 42.0153C47.7538 42.6054 46.7704 43.0752 45.5248 43.4249C44.2791 43.7745 42.7057 43.9494 40.8044 43.9494C39.4495 43.9494 38.3132 43.851 37.3953 43.6543C36.4993 43.4795 35.7672 43.2173 35.1991 42.8676C34.6527 42.5398 34.2594 42.1465 34.019 41.6875C33.7786 41.2286 33.6584 40.726 33.6584 40.1797C33.6584 39.1526 33.9862 38.3549 34.6418 37.7867C35.2974 37.2404 36.1825 36.8252 37.297 36.5411L37.3298 36.3116C36.7179 36.1368 36.2589 35.8418 35.953 35.4266C35.6689 35.0113 35.5269 34.5087 35.5269 33.9187C35.5269 33.0008 35.8765 32.2688 36.5758 31.7224C37.2751 31.1542 38.1493 30.7609 39.1982 30.5423L39.231 30.3129C37.6139 29.4606 36.8053 28.0292 36.8053 26.0187C36.8053 25.1664 36.9583 24.3578 37.2642 23.593C37.592 22.8063 38.0728 22.107 38.7065 21.4951C39.3621 20.8832 40.1707 20.4024 41.1322 20.0527C42.1156 19.6812 43.2629 19.4955 44.5741 19.4955C45.1423 19.4955 45.6777 19.5392 46.1804 19.6266C46.683 19.714 47.1528 19.8342 47.5899 19.9872L47.721 19.3644C48.0488 17.7035 48.9557 16.8731 50.4418 16.8731H52.9658L52.343 20.0527H48.9994L48.8355 20.7411C50.0375 21.6153 50.6384 22.8827 50.6384 24.5436C50.6384 25.3959 50.4745 26.2154 50.1467 27.0021C49.8189 27.767 49.3272 28.4553 48.6716 29.0672C48.0379 29.6791 47.2293 30.1708 46.2459 30.5423C45.2844 30.892 44.148 31.0668 42.8368 31.0668C42.3997 31.0668 41.9954 31.0559 41.6239 31.034C41.2743 30.9903 40.9246 30.9138 40.575 30.8046C40.0724 30.9576 39.6681 31.187 39.3621 31.493C39.0562 31.7771 38.9032 32.1267 38.9032 32.5419C38.9032 32.9134 39.0452 33.1975 39.3293 33.3942C39.6353 33.569 40.1161 33.6564 40.7717 33.6564H44.8692C46.7923 33.6564 48.2018 34.017 49.0978 34.7382C49.9938 35.4375 50.4418 36.4864 50.4418 37.8851ZM46.4426 38.7373C46.4426 38.2347 46.2678 37.8414 45.9181 37.5573C45.5685 37.2732 44.9238 37.1311 43.9841 37.1311H38.2804C37.8433 37.3934 37.5264 37.7102 37.3298 38.0817C37.1549 38.4532 37.0675 38.8248 37.0675 39.1963C37.0675 39.7644 37.297 40.2234 37.7559 40.573C38.2148 40.9445 39.0234 41.1303 40.1816 41.1303H42.1484C43.7219 41.1303 44.8255 40.9008 45.4592 40.4419C46.1148 39.983 46.4426 39.4148 46.4426 38.7373ZM43.2302 28.2477C44.2136 28.2477 44.9784 28.0183 45.5248 27.5594C46.0711 27.1004 46.4317 26.4667 46.6065 25.6581C46.6939 25.2211 46.7376 24.9151 46.7376 24.7403C46.7595 24.5655 46.7704 24.4234 46.7704 24.3141C46.7704 22.9592 45.9072 22.2818 44.1808 22.2818C43.1974 22.2818 42.4325 22.5112 41.8862 22.9702C41.3398 23.4291 40.9793 24.0628 40.8044 24.8714C40.717 25.3085 40.6624 25.6144 40.6405 25.7892C40.6405 25.9641 40.6405 26.1061 40.6405 26.2154C40.6405 27.5703 41.5037 28.2477 43.2302 28.2477ZM65.1736 37C64.3868 37 63.7422 36.7924 63.2395 36.3772C62.7369 35.962 62.4856 35.3829 62.4856 34.6398C62.4856 34.465 62.4965 34.2793 62.5184 34.0826C62.5621 33.8859 62.5949 33.7329 62.6167 33.6237L62.7151 33.0992H62.5512C61.8518 34.4978 61.0761 35.5686 60.2238 36.3116C59.3715 37.0328 58.2898 37.3934 56.9786 37.3934C56.1918 37.3934 55.4925 37.2513 54.8806 36.9672C54.2906 36.6613 53.7989 36.2351 53.4055 35.6888C53.0122 35.1425 52.7172 34.4978 52.5205 33.7548C52.3238 33.0118 52.2255 32.1813 52.2255 31.2635C52.2255 29.6026 52.4221 28.062 52.8155 26.6415C53.2089 25.1992 53.7552 23.9536 54.4545 22.9046C55.1757 21.8338 56.0279 21.0034 57.0113 20.4133C58.0166 19.8014 59.1093 19.4955 60.2893 19.4955C61.4476 19.4955 62.42 19.8014 63.2068 20.4133C63.9935 21.0252 64.4633 21.8229 64.6163 22.8063H64.7802L65.3702 19.8888H69.3366L66.5503 33.7548H68.6155L67.9926 37H65.1736ZM58.7815 34.0826C59.4152 34.0826 59.9834 33.9296 60.486 33.6237C61.0105 33.2959 61.4585 32.9134 61.83 32.4764C62.2671 31.9956 62.6276 31.4493 62.9117 30.8374C63.1958 30.2036 63.4144 29.5371 63.5673 28.8378L64.1574 25.9204C64.3322 25.0462 64.1355 24.3141 63.5673 23.7241C63.021 23.1122 62.2234 22.8063 61.1744 22.8063C58.9235 22.8063 57.514 24.2158 56.9458 27.0349L56.4869 29.395C56.4431 29.6354 56.3994 29.9304 56.3557 30.2801C56.312 30.6298 56.2902 30.9357 56.2902 31.1979C56.2902 32.0721 56.4978 32.7714 56.913 33.2959C57.3501 33.8203 57.9729 34.0826 58.7815 34.0826ZM70.3164 37L73.7583 19.8888H77.7247L76.9708 23.6913H77.1347C77.7684 22.3364 78.5224 21.2984 79.3965 20.5772C80.2925 19.8561 81.3961 19.4955 82.7073 19.4955C84.084 19.4955 85.1221 19.8888 85.8214 20.6756C86.5425 21.4623 86.9031 22.5768 86.9031 24.0191C86.9031 24.3906 86.8703 24.7731 86.8048 25.1664C86.7611 25.5379 86.6955 25.9422 86.6081 26.3793L85.133 33.7548H87.0342L86.3786 37H83.6251C82.8384 37 82.2156 36.8033 81.7566 36.41C81.2977 35.9947 81.0683 35.4156 81.0683 34.6726C81.0683 34.3667 81.101 34.0607 81.1666 33.7548L82.5761 26.7071C82.7073 26.0952 82.7728 25.4942 82.7728 24.9042C82.7728 24.2704 82.6199 23.7787 82.3139 23.4291C82.008 23.0576 81.4944 22.8718 80.7732 22.8718C80.2051 22.8718 79.6806 23.0139 79.1998 23.298C78.719 23.5602 78.282 23.9208 77.8886 24.3797C77.4515 24.8823 77.0691 25.4396 76.7413 26.0515C76.4354 26.6634 76.2168 27.308 76.0857 27.9855L74.2828 37H70.3164Z" fill="#3F3527"/>
<rect x="97" width="50" height="50" rx="25" fill="#8EDA72"/>
<g clip-path="url(#clip0_2512_59489)">
<path d="M138.842 21.166C138.807 21.0849 138.755 21.0126 138.688 20.9542C138.622 20.8957 138.544 20.8527 138.459 20.828C138.374 20.8034 138.285 20.7978 138.198 20.8116C138.11 20.8254 138.027 20.8583 137.954 20.908C136.018 22.3487 133.769 23.3128 131.39 23.722C128.168 24.244 125.3 24.868 122.816 27.22C122.21 27.8016 121.693 28.4686 121.28 29.2C120.734 28.1324 120.014 27.1631 119.15 26.332C116.972 24.31 114.452 23.77 111.626 23.332C109.559 22.9878 107.601 22.166 105.908 20.932C105.835 20.8823 105.752 20.8494 105.665 20.8356C105.578 20.8218 105.488 20.8274 105.403 20.852C105.319 20.8767 105.24 20.9197 105.174 20.9782C105.108 21.0366 105.055 21.1089 105.02 21.19C102.182 27.79 105.362 36.946 112.862 39.28C115.302 39.9812 117.883 40.0226 120.344 39.4C120.477 39.3671 120.595 39.2897 120.678 39.1805C120.761 39.0713 120.804 38.9371 120.8 38.8C120.8 34.972 121.16 32.56 121.802 30.88L121.838 30.796C122.224 29.7686 122.84 28.843 123.638 28.09C125.864 25.972 128.546 25.396 131.57 24.904C133.872 24.5164 136.062 23.6341 137.99 22.318C140.822 30.334 136.25 42.544 123.2 41.8C125.28 37.6876 128.379 34.1762 132.2 31.6C132.269 31.5571 132.329 31.5005 132.376 31.4337C132.422 31.367 132.455 31.2915 132.471 31.2117C132.488 31.132 132.488 31.0497 132.472 30.97C132.455 30.8902 132.423 30.8146 132.376 30.7477C132.33 30.6809 132.27 30.6242 132.201 30.5811C132.132 30.538 132.055 30.5094 131.975 30.4971C131.894 30.4848 131.812 30.489 131.733 30.5094C131.654 30.5298 131.581 30.5661 131.516 30.616C124.16 35.656 121.85 41.836 121.754 42.094C121.723 42.18 121.711 42.272 121.721 42.3632C121.73 42.4543 121.76 42.542 121.809 42.6196C121.858 42.6972 121.923 42.7627 122.001 42.8109C122.079 42.8592 122.167 42.889 122.258 42.898C124.842 43.1716 127.454 42.91 129.932 42.13C138.416 39.43 142.076 28.852 138.842 21.166ZM119.6 37.054C118.682 35.56 116.306 32.416 111.548 29.2C111.416 29.1109 111.254 29.0779 111.098 29.1083C110.941 29.1386 110.803 29.2299 110.714 29.362C110.625 29.4941 110.592 29.6561 110.622 29.8125C110.653 29.969 110.744 30.1069 110.876 30.196C116.732 34.18 118.844 38.074 119.042 38.446C108.506 40.192 103.226 29.8 105.86 22.306C107.541 23.4236 109.442 24.1683 111.434 24.49C114.158 24.922 116.402 25.402 118.328 27.196C119.327 28.1643 120.108 29.3342 120.62 30.628C119.945 32.7032 119.601 34.8717 119.6 37.054Z" fill="#445F3A"/>
<path d="M121.575 25.42C121.63 25.4762 121.697 25.5209 121.77 25.5513C121.843 25.5818 121.921 25.5975 122.001 25.5975C122.08 25.5975 122.158 25.5818 122.231 25.5513C122.304 25.5209 122.371 25.4762 122.427 25.42L130.455 17.302C134.175 13.546 131.601 7 126.201 7C125.416 7.00524 124.64 7.16717 123.919 7.47627C123.198 7.78537 122.545 8.23541 122.001 8.8C121.449 8.23907 120.792 7.79354 120.067 7.48941C119.341 7.18529 118.563 7.02865 117.777 7.02865C116.99 7.02865 116.212 7.18529 115.486 7.48941C114.761 7.79354 114.104 8.23907 113.553 8.8C112.431 9.93641 111.801 11.4691 111.801 13.066C111.801 14.6629 112.431 16.1956 113.553 17.332L121.575 25.42ZM114.405 9.616C114.845 9.16809 115.37 8.81236 115.95 8.56954C116.529 8.32671 117.151 8.20166 117.78 8.20166C118.408 8.20166 119.03 8.32671 119.609 8.56954C120.189 8.81236 120.714 9.16809 121.155 9.616L121.575 10.036C121.63 10.0922 121.697 10.1369 121.77 10.1673C121.843 10.1978 121.921 10.2135 122.001 10.2135C122.08 10.2135 122.158 10.1978 122.231 10.1673C122.304 10.1369 122.371 10.0922 122.427 10.036L122.853 9.61C123.528 8.95248 124.382 8.50842 125.308 8.33322C126.235 8.15802 127.192 8.25943 128.061 8.62482C128.93 8.9902 129.672 9.60338 130.195 10.3878C130.718 11.1723 130.998 12.0933 131.001 13.036C131.006 14.3161 130.503 15.546 129.603 16.456L122.001 24.148L114.405 16.456C113.505 15.5452 113 14.3164 113 13.036C113 11.7556 113.505 10.5268 114.405 9.616Z" fill="#445F3A"/>
<path d="M115.4 15.46C115.51 15.4592 115.618 15.4279 115.712 15.3696C115.806 15.3113 115.882 15.2283 115.932 15.1297C115.981 15.031 116.003 14.9206 115.994 14.8106C115.984 14.7005 115.945 14.5951 115.88 14.506C115.533 14.0323 115.365 13.4508 115.407 12.8651C115.449 12.2794 115.697 11.7276 116.108 11.308C116.164 11.252 116.208 11.1857 116.237 11.1128C116.267 11.0398 116.283 10.9617 116.282 10.8829C116.282 10.804 116.266 10.726 116.236 10.6533C116.205 10.5806 116.161 10.5145 116.105 10.459C116.049 10.4034 115.983 10.3594 115.91 10.3295C115.837 10.2996 115.759 10.2844 115.68 10.2846C115.601 10.2849 115.523 10.3007 115.45 10.3312C115.378 10.3616 115.312 10.406 115.256 10.462C114.645 11.0864 114.276 11.9077 114.214 12.7793C114.153 13.6508 114.403 14.5159 114.92 15.22C114.976 15.2945 115.048 15.355 115.132 15.3966C115.215 15.4383 115.307 15.46 115.4 15.46ZM117.8 10.6C117.962 10.6 118.123 10.618 118.28 10.654C118.438 10.684 118.601 10.6509 118.735 10.5618C118.868 10.4727 118.962 10.3348 118.995 10.1776C119.028 10.0204 118.998 9.85658 118.911 9.72127C118.825 9.58597 118.689 9.48999 118.532 9.45398C118.29 9.41396 118.045 9.39589 117.8 9.39998C117.641 9.39998 117.488 9.4632 117.376 9.57572C117.263 9.68824 117.2 9.84085 117.2 9.99998C117.2 10.1591 117.263 10.3117 117.376 10.4242C117.488 10.5368 117.641 10.6 117.8 10.6Z" fill="#445F3A"/>
</g>
<path d="M155.885 37L160.474 14.1196H164.605L160.769 33.3286H169.456L168.735 37H155.885ZM178.057 37.3934C176.046 37.3934 174.44 36.7815 173.238 35.5577C172.036 34.3339 171.435 32.5747 171.435 30.2801C171.435 28.7722 171.654 27.3627 172.091 26.0515C172.528 24.7403 173.14 23.6039 173.926 22.6424C174.713 21.659 175.642 20.8941 176.713 20.3478C177.783 19.7796 178.964 19.4955 180.253 19.4955C182.263 19.4955 183.87 20.1074 185.072 21.3312C186.273 22.5549 186.874 24.3141 186.874 26.6087C186.874 28.1166 186.656 29.5262 186.219 30.8374C185.782 32.1486 185.17 33.2959 184.383 34.2793C183.596 35.2408 182.657 36.0057 181.564 36.5739C180.493 37.1202 179.324 37.3934 178.057 37.3934ZM178.286 34.1154C179.269 34.1154 180.1 33.7548 180.777 33.0336C181.477 32.3125 181.957 31.2635 182.22 29.8867L182.81 27.0349C182.853 26.8163 182.886 26.6306 182.908 26.4776C182.93 26.3028 182.941 26.0952 182.941 25.8548C182.941 24.937 182.69 24.1939 182.187 23.6258C181.706 23.0576 180.985 22.7735 180.023 22.7735C179.04 22.7735 178.199 23.1341 177.499 23.8552C176.822 24.5764 176.352 25.6253 176.09 27.0021L175.5 29.8867C175.456 30.0616 175.423 30.2364 175.401 30.4112C175.38 30.586 175.369 30.7937 175.369 31.034C175.369 31.9519 175.609 32.6949 176.09 33.2631C176.592 33.8313 177.325 34.1154 178.286 34.1154ZM190.979 37L188.718 19.8888H192.651L193.405 26.9038L193.962 33.3942H194.159L197.109 26.9038L200.584 19.8888H204.845L195.798 37H190.979ZM210.782 37.3934C208.466 37.3934 206.718 36.7487 205.538 35.4593C204.379 34.17 203.8 32.378 203.8 30.0834C203.8 28.7067 204.019 27.3845 204.456 26.117C204.893 24.8277 205.505 23.6913 206.291 22.7079C207.1 21.7245 208.062 20.9487 209.176 20.3805C210.312 19.7905 211.58 19.4955 212.979 19.4955C213.656 19.4955 214.344 19.5829 215.044 19.7577C215.743 19.9107 216.377 20.1729 216.945 20.5444C217.513 20.8941 217.983 21.3749 218.355 21.9868C218.726 22.5987 218.912 23.3417 218.912 24.2158C218.912 26.0078 218.027 27.4064 216.257 28.4116C214.508 29.4169 211.7 29.9632 207.832 30.0506C207.767 30.4877 207.734 30.8046 207.734 31.0013C207.734 31.941 207.996 32.6949 208.521 33.2631C209.045 33.8313 209.897 34.1154 211.077 34.1154C211.93 34.1154 212.705 33.9296 213.405 33.5581C214.104 33.1866 214.825 32.5419 215.568 31.6241L218.027 33.6564C216.956 35.0332 215.83 36.0057 214.65 36.5739C213.492 37.1202 212.203 37.3934 210.782 37.3934ZM212.716 22.5768C211.624 22.5768 210.695 22.9374 209.93 23.6585C209.165 24.3797 208.663 25.3631 208.422 26.6087L208.258 27.4282C209.657 27.3627 210.793 27.2534 211.667 27.1004C212.563 26.9256 213.252 26.718 213.733 26.4776C214.235 26.2372 214.574 25.9531 214.749 25.6253C214.924 25.2975 215.011 24.926 215.011 24.5108C215.011 24.1175 214.934 23.8006 214.781 23.5602C214.65 23.298 214.476 23.1013 214.257 22.9702C214.038 22.8172 213.787 22.7188 213.503 22.6751C213.241 22.6096 212.979 22.5768 212.716 22.5768ZM219.623 37L224.212 14.1196H228.342L224.507 33.3286H233.194L232.473 37H219.623ZM241.287 17.3976C240.566 17.3976 240.042 17.2555 239.714 16.9714C239.386 16.6873 239.222 16.3158 239.222 15.8569C239.222 15.5291 239.277 15.1139 239.386 14.6113C239.517 14.0649 239.769 13.5951 240.14 13.2017C240.534 12.7865 241.2 12.5789 242.14 12.5789C242.861 12.5789 243.385 12.7209 243.713 13.005C244.041 13.2891 244.205 13.6606 244.205 14.1196C244.205 14.4474 244.15 14.8626 244.041 15.3652C243.91 15.9115 243.648 16.3923 243.254 16.8075C242.883 17.2009 242.227 17.3976 241.287 17.3976ZM238.599 37C237.769 37 237.103 36.7815 236.6 36.3444C236.119 35.8855 235.879 35.2845 235.879 34.5415C235.879 34.323 235.912 34.0498 235.977 33.722L238.731 19.8888H242.697L239.943 33.7548H242.009L241.353 37H238.599ZM243.724 37L247.166 19.8888H251.133L250.379 23.6913H250.543C251.176 22.3364 251.93 21.2984 252.805 20.5772C253.7 19.8561 254.804 19.4955 256.115 19.4955C257.492 19.4955 258.53 19.8888 259.229 20.6756C259.951 21.4623 260.311 22.5768 260.311 24.0191C260.311 24.3906 260.278 24.7731 260.213 25.1664C260.169 25.5379 260.104 25.9422 260.016 26.3793L258.541 33.7548H260.442L259.787 37H257.033C256.246 37 255.624 36.8033 255.165 36.41C254.706 35.9947 254.476 35.4156 254.476 34.6726C254.476 34.3667 254.509 34.0607 254.575 33.7548L255.984 26.7071C256.115 26.0952 256.181 25.4942 256.181 24.9042C256.181 24.2704 256.028 23.7787 255.722 23.4291C255.416 23.0576 254.902 22.8718 254.181 22.8718C253.613 22.8718 253.089 23.0139 252.608 23.298C252.127 23.5602 251.69 23.9208 251.297 24.3797C250.86 24.8823 250.477 25.4396 250.149 26.0515C249.843 26.6634 249.625 27.308 249.494 27.9855L247.691 37H243.724ZM266.935 12.7428H270.902L268.017 27.2643H268.214L270.771 24.3469L275.36 19.8888H280.014L272.868 26.8054L275.556 33.7548H277.556L276.9 37H274.77C273.24 37 272.202 36.2133 271.656 34.6398L269.754 29.4606L267.034 32.0174L266.05 37H262.084L266.935 12.7428Z" fill="#3F3527"/>
<defs>
<clipPath id="clip0_2512_59489">
<rect width="36" height="36" fill="white" transform="translate(104 7)"/>
</clipPath>
</defs>
</svg>
