<svg width="117" height="22" viewBox="0 0 117 22" fill="none" xmlns="http://www.w3.org/2000/svg">
<g clip-path="url(#clip0_6_9892)">
<g clip-path="url(#clip1_6_9892)">
<g clip-path="url(#clip2_6_9892)">
<path fill-rule="evenodd" clip-rule="evenodd" d="M11.0122 0L7.65952 8.6079H0L6.33436 13.2717L3.82976 22L11.0122 16.2602L18.1815 22L15.6769 13.2717L22.0113 8.6079H14.3517L11.0122 0ZM34.7594 0L31.4067 8.6079H23.7472L30.0816 13.2717L27.5769 22L34.7594 16.2602L41.9287 22L39.4241 13.2717L45.7584 8.6079H38.0988L34.7594 0ZM55.1539 8.6079L58.5066 0L61.846 8.6079H69.5056L63.1712 13.2717L65.6759 22L58.5066 16.2602L51.3241 22L53.8288 13.2717L47.4944 8.6079H55.1539ZM82.2538 0L78.901 8.6079H71.2416L77.5759 13.2717L75.0713 22L82.2538 16.2602L89.4231 22L86.9184 13.2717L93.2528 8.6079H85.5932L82.2538 0ZM102.648 8.6079L106.001 0L109.34 8.6079H117L110.666 13.2717L113.17 22L106.001 16.2602L98.8185 22L101.323 13.2717L94.9887 8.6079H102.648Z" fill="#FFD69C"/>
</g>
</g>
</g>
<defs>
<clipPath id="clip0_6_9892">
<rect width="117" height="22" fill="white"/>
</clipPath>
<clipPath id="clip1_6_9892">
<rect width="117" height="22" fill="white"/>
</clipPath>
<clipPath id="clip2_6_9892">
<rect width="117" height="22" fill="white"/>
</clipPath>
</defs>
</svg>
