<svg width="23" height="23" viewBox="0 0 23 23" fill="none" xmlns="http://www.w3.org/2000/svg">
<rect x="0.279297" y="0.845215" width="22.1549" height="22.1549" rx="11.0775" fill="#29A0DC"/>
<path d="M7.6705 12.9109L4.86709 11.9975C4.86709 11.9975 4.53205 11.8616 4.63993 11.5533C4.66214 11.4898 4.70694 11.4357 4.84096 11.3427C5.46212 10.9098 16.3381 7.00066 16.3381 7.00066C16.3381 7.00066 16.6452 6.89718 16.8263 6.966C16.8711 6.97987 16.9114 7.0054 16.9431 7.03996C16.9748 7.07452 16.9968 7.11689 17.0068 7.16272C17.0263 7.24367 17.0345 7.32696 17.0311 7.41017C17.0302 7.48215 17.0215 7.54887 17.0149 7.6535C16.9487 8.72227 14.9664 16.6989 14.9664 16.6989C14.9664 16.6989 14.8478 17.1656 14.4228 17.1816C14.3184 17.185 14.2144 17.1673 14.1169 17.1296C14.0195 17.0919 13.9306 17.035 13.8557 16.9622C13.0218 16.2449 10.1397 14.308 9.50287 13.882C9.4885 13.8723 9.4764 13.8595 9.46739 13.8446C9.45837 13.8298 9.45265 13.8132 9.4506 13.7959C9.4417 13.751 9.49052 13.6954 9.49052 13.6954C9.49052 13.6954 14.509 9.23459 14.6425 8.76631C14.6529 8.73003 14.6138 8.71213 14.5614 8.72802C14.228 8.85064 8.44989 12.4996 7.81217 12.9023C7.76626 12.9162 7.71774 12.9191 7.6705 12.9109Z" fill="white"/>
</svg>
