<svg width="31" height="31" viewBox="0 0 31 31" fill="none" xmlns="http://www.w3.org/2000/svg">
<rect x="-0.00012207" y="0.232971" width="30.5792" height="30.5792" rx="15.2896" fill="url(#paint0_linear_735_38346)"/>
<path d="M9.84573 16.7539L11.8757 22.3725C11.8757 22.3725 12.1295 22.8982 12.4013 22.8982C12.673 22.8982 16.7151 18.6931 16.7151 18.6931L21.2101 10.0112L9.91817 15.3035L9.84573 16.7539Z" fill="#C8DAEA"/>
<path d="M12.5368 18.1949L12.1471 22.3364C12.1471 22.3364 11.984 23.6054 13.2527 22.3364C14.5214 21.0674 15.7358 20.0888 15.7358 20.0888" fill="#A9C6D8"/>
<path d="M9.88175 16.9542L5.70605 15.5937C5.70605 15.5937 5.207 15.3912 5.3677 14.9321C5.40078 14.8374 5.4675 14.7569 5.66712 14.6184C6.59235 13.9735 22.7923 8.15083 22.7923 8.15083C22.7923 8.15083 23.2497 7.99669 23.5194 8.09921C23.5862 8.11987 23.6462 8.15788 23.6935 8.20937C23.7407 8.26085 23.7734 8.32395 23.7882 8.39222C23.8174 8.5128 23.8295 8.63685 23.8244 8.7608C23.8231 8.86802 23.8102 8.9674 23.8003 9.12325C23.7017 10.7152 20.749 22.5964 20.749 22.5964C20.749 22.5964 20.5724 23.2916 19.9395 23.3154C19.7839 23.3205 19.6289 23.2941 19.4838 23.238C19.3387 23.1818 19.2063 23.097 19.0946 22.9886C17.8526 21.9203 13.5597 19.0352 12.6111 18.4007C12.5897 18.3862 12.5717 18.3672 12.5582 18.345C12.5448 18.3229 12.5363 18.2981 12.5332 18.2724C12.52 18.2055 12.5927 18.1227 12.5927 18.1227C12.5927 18.1227 20.0678 11.4783 20.2667 10.7808C20.2821 10.7267 20.2239 10.7001 20.1458 10.7237C19.6493 10.9064 11.0427 16.3415 10.0928 16.9414C10.0244 16.9621 9.95213 16.9665 9.88175 16.9542Z" fill="white"/>
<defs>
<linearGradient id="paint0_linear_735_38346" x1="15.2895" y1="30.8121" x2="15.2895" y2="0.232971" gradientUnits="userSpaceOnUse">
<stop stop-color="#1D93D2"/>
<stop offset="1" stop-color="#38B0E3"/>
</linearGradient>
</defs>
</svg>
