<svg width="31" height="31" viewBox="0 0 31 31" fill="none" xmlns="http://www.w3.org/2000/svg">
<rect width="30.5792" height="30.5792" rx="15.2896" fill="url(#paint0_linear_14_4724)"/>
<path d="M9.84583 16.521L11.8758 22.1396C11.8758 22.1396 12.1296 22.6653 12.4014 22.6653C12.6731 22.6653 16.7152 18.4602 16.7152 18.4602L21.2102 9.77832L9.91826 15.0706L9.84583 16.521Z" fill="#C8DAEA"/>
<path d="M12.5369 17.9619L12.1472 22.1034C12.1472 22.1034 11.9841 23.3724 13.2528 22.1034C14.5215 20.8344 15.7359 19.8559 15.7359 19.8559" fill="#A9C6D8"/>
<path d="M9.88187 16.7212L5.70617 15.3607C5.70617 15.3607 5.20713 15.1582 5.36782 14.6991C5.4009 14.6045 5.46763 14.5239 5.66724 14.3854C6.59247 13.7405 22.7924 7.91785 22.7924 7.91785C22.7924 7.91785 23.2498 7.76372 23.5196 7.86624C23.5863 7.8869 23.6463 7.92491 23.6936 7.9764C23.7408 8.02788 23.7735 8.09098 23.7883 8.15925C23.8175 8.27983 23.8297 8.40388 23.8245 8.52783C23.8233 8.63505 23.8103 8.73443 23.8004 8.89027C23.7018 10.4822 20.7492 22.3634 20.7492 22.3634C20.7492 22.3634 20.5725 23.0587 19.9396 23.0825C19.784 23.0875 19.6291 23.0612 19.4839 23.005C19.3388 22.9489 19.2064 22.8641 19.0948 22.7557C17.8527 21.6873 13.5598 18.8023 12.6112 18.1678C12.5898 18.1532 12.5718 18.1342 12.5584 18.112C12.5449 18.0899 12.5364 18.0651 12.5334 18.0394C12.5201 17.9726 12.5928 17.8897 12.5928 17.8897C12.5928 17.8897 20.0679 11.2453 20.2668 10.5478C20.2822 10.4938 20.224 10.4671 20.1459 10.4908C19.6494 10.6734 11.0428 16.1086 10.0929 16.7084C10.0245 16.7291 9.95225 16.7335 9.88187 16.7212Z" fill="white"/>
<defs>
<linearGradient id="paint0_linear_14_4724" x1="15.2896" y1="30.5792" x2="15.2896" y2="0" gradientUnits="userSpaceOnUse">
<stop stop-color="#1D93D2"/>
<stop offset="1" stop-color="#38B0E3"/>
</linearGradient>
</defs>
</svg>
