<svg width="35" height="33" viewBox="0 0 35 33" fill="none" xmlns="http://www.w3.org/2000/svg">
<path d="M17.5 32.6512L14.9625 30.3842C12.0167 27.7393 9.58125 25.4577 7.65625 23.5395C5.73125 21.6212 4.2 19.8991 3.0625 18.3733C1.925 16.8474 1.13021 15.445 0.678125 14.1662C0.226042 12.8873 0 11.5794 0 10.2425C0 7.5104 0.91875 5.22884 2.75625 3.39778C4.59375 1.56672 6.88333 0.651184 9.625 0.651184C11.1417 0.651184 12.5854 0.970893 13.9563 1.61031C15.3271 2.24973 16.5083 3.15073 17.5 4.31331C18.4917 3.15073 19.6729 2.24973 21.0438 1.61031C22.4146 0.970893 23.8583 0.651184 25.375 0.651184C28.1167 0.651184 30.4063 1.56672 32.2438 3.39778C34.0813 5.22884 35 7.5104 35 10.2425C35 11.5794 34.774 12.8873 34.3219 14.1662C33.8698 15.445 33.075 16.8474 31.9375 18.3733C30.8 19.8991 29.2687 21.6212 27.3438 23.5395C25.4188 25.4577 22.9833 27.7393 20.0375 30.3842L17.5 32.6512Z" fill="white"/>
</svg>
