<svg width="351" height="401" viewBox="0 0 351 401" fill="none" xmlns="http://www.w3.org/2000/svg">
<path fill-rule="evenodd" clip-rule="evenodd" d="M-44.2367 170.334C-44.3236 169.437 -44.6854 168.9 -45.5209 168.923C-46.9587 168.959 -47.881 169.687 -48.1997 171.113C-48.3744 171.894 -47.9354 172.124 -47.2591 172.117C-45.8697 172.101 -45.0686 171.152 -44.2367 170.334ZM-93.4772 422.591C-91.4576 418.95 -89.9024 415.104 -88.0933 411.372C-90.9589 414.591 -92.8361 418.296 -93.4772 422.591ZM-39.8348 162.817C-33.0639 157.58 -26.0836 152.629 -19.0249 147.786C-27.1794 151.123 -33.9255 156.394 -39.8348 162.817ZM83.5157 120.343C96.262 116.95 107.457 110.555 118.307 103.461C107.263 109.207 96.231 114.962 84.681 119.653C84.268 119.822 83.9036 120.111 83.5157 120.343ZM169.607 440.812C164.205 452.013 155.706 460.86 150.364 471.716C155.202 469.381 170.754 444.943 169.607 440.812ZM11.0994 534.751C13.4112 535.135 15.7115 535.723 18.0382 535.867C27.5711 536.461 37.1163 536.219 46.6557 536.005C60.8092 535.687 74.4351 531.959 88.2157 529.331C94.5739 528.117 100.805 526.057 105.747 521.418C122.079 506.082 136.02 488.968 147.154 469.371C156.041 453.732 166.656 439.084 175.94 423.657C182.568 412.645 187.6 400.79 191.041 388.338C193.908 377.965 195.042 367.272 196.876 356.704C198.383 348.014 199.674 339.294 201.672 330.656C203.078 324.572 202.763 317.939 203.282 311.554C204.194 300.31 206.182 289.385 211.339 279.188C216.098 269.78 221.884 261.031 228.601 252.973C242.2 236.657 258.157 222.761 274.673 209.528C283.543 202.422 292.283 195.21 300.025 186.88C314.272 171.551 322.895 153.439 325.845 132.768C328.152 116.608 323.176 102.937 310.699 92.1363C289.01 73.3642 264.306 64.4058 235.45 68.8492C213.103 72.2907 192.397 80.2185 172.802 91.4012C160.582 98.3762 149.123 106.554 136.928 113.559C120.317 123.103 103.533 132.252 84.9595 137.532C70.5857 141.62 55.8413 143.725 41.0602 145.551C28.4419 147.11 16.1749 150.007 4.29236 154.509C-9.42191 159.706 -21.5289 167.257 -30.9454 178.722C-32.0648 180.087 -32.095 180.063 -34.08 179.775C-34.6826 179.688 -34.8027 180.181 -35.0706 180.548C-37.5064 183.894 -39.3334 187.503 -40.0679 191.622C-40.5644 194.404 -40.1505 198.57 -41.3279 199.753C-45.1081 203.55 -43.4931 208.104 -43.5314 211.826C-43.5773 216.443 -43.1742 221.308 -42.5443 226.047C-40.9651 237.942 -38.8365 249.72 -34.9259 261.056C-31.3407 271.455 -27.9313 281.911 -28.2344 292.964C-28.3236 296.167 -25.1433 300.369 -29.7273 303.045C-29.7288 303.046 -29.4971 303.405 -29.4074 303.611C-27.8164 307.262 -27.3543 311.162 -27.8263 315.011C-28.2751 318.688 -27.5374 322.317 -27.9805 325.952C-28.6954 331.818 -27.4756 337.839 -29.7178 343.614C-30.7371 346.242 -31.0848 349.151 -31.5573 351.964C-32.6092 358.224 -35.7225 363.838 -37.0938 370.061C-37.6077 372.392 -40.158 375.039 -41.7369 377.543C-47.3972 386.522 -55.8145 392.679 -63.4658 399.684C-70.6643 406.273 -78.5718 412.591 -80.9222 422.873C-81.8698 427.021 -83.8515 431.236 -82.3431 435.528C-78.2834 447.061 -77.2153 459.549 -70.811 470.349C-65.8269 478.754 -63.1418 488.381 -56.641 496.045C-50.2835 503.54 -44.3405 511.459 -36.5629 517.508C-32.7452 520.477 -28.8776 523.509 -24.133 525.414C-12.7335 529.992 -0.9861 532.913 11.0994 534.751ZM190.065 63.3459C190.751 63.2568 191.474 63.2755 192.118 63.0595C208.196 57.6573 224.626 53.9932 241.589 52.8856C242.203 52.8451 243.009 53.0001 243.51 52.1513C242.379 52.1256 241.321 52.0763 240.262 52.0837C226.313 52.1892 212.886 55.2751 199.661 59.3742C196.369 60.3948 192.847 61.0265 190.115 63.428C186.433 63.0773 183.701 65.7794 180.341 66.5198C179.753 66.6488 178.991 67.5531 179.691 68.5448C179.924 68.8735 180.28 69.1198 180.508 68.8164C182.922 65.625 187.414 66.0905 190.065 63.3459ZM139.958 109.667C144.621 107.741 148.58 104.709 152.533 101.672C148.37 104.377 143.591 106.131 140.014 109.751C136.747 110.331 134.359 112.509 131.789 114.352C134.831 113.357 137.559 111.801 139.958 109.667ZM177.358 461.323C173.79 467.625 170.333 473.904 164.45 478.605C160.895 481.445 157.834 485.066 155.182 488.786C154.221 490.137 152.829 490.362 151.861 491.551C149.6 494.328 148.381 497.686 145.644 500.294C139.473 506.171 133.363 512.089 126.996 517.773C122.795 521.523 118.781 525.53 114.461 529.156C106.411 535.91 96.9291 539.762 86.7532 541.936C74.9945 544.447 63.2782 547.346 51.3977 549.075C29.2579 552.296 7.34942 551.436 -14.4188 545.097C-27.533 541.278 -40.1436 536.586 -50.4749 527.848C-66.997 513.872 -79.6966 496.806 -87.2546 476.255C-87.538 475.486 -87.9463 474.761 -88.3187 474.027C-91.6969 467.366 -94.6179 460.579 -95.4207 453.017C-95.8197 449.277 -96.7156 445.6 -97.7741 441.957C-100.914 431.154 -98.317 421.23 -92.7714 411.838C-87.1892 402.385 -79.2446 394.892 -70.6931 388.499C-59.2665 379.956 -52.739 368.932 -49.0215 355.555C-45.5634 343.112 -45.7484 330.474 -45.959 317.785C-46.0879 309.999 -46.0653 302.206 -46.3002 294.423C-46.6809 281.877 -50.4703 270.12 -54.4053 258.312C-59.5275 242.938 -62.7656 227.11 -63.6111 210.846C-64.3189 197.237 -60.753 184.582 -54.2254 172.946C-50.4645 166.242 -45.9532 159.799 -39.5667 154.924C-33.3491 150.176 -27.1034 145.553 -20.0566 142.107C-3.12003 133.822 14.8319 129.018 33.4472 126.444C54.7003 123.504 75.6178 119.324 94.9904 109.509C109.345 102.236 123.202 94.1152 136.676 85.3274C155.023 73.3614 173.957 62.5303 194.897 55.6725C215.196 49.0258 235.966 44.6775 257.285 48.4198C289.373 54.0529 315.002 69.9807 330.103 99.6522C341.269 121.599 339.883 144.39 331.288 166.997C329.736 171.079 328.173 175.158 326.49 179.187C322.165 189.536 316.139 198.711 308.195 206.724C303.566 211.395 298.68 215.792 294.058 220.405C288.631 225.819 282.789 230.636 276.806 235.285C269.876 240.668 263.539 246.627 257.42 252.871C255.288 255.045 252.308 256.085 250.202 258.456C242.238 267.422 234.049 276.198 227.721 286.464C224.305 292.006 220.865 297.392 219.274 304.012C218.3 308.071 217.87 312.206 216.834 316.229C215.282 322.254 215.335 328.455 215.315 334.593C215.307 336.949 212.217 338.343 212.79 338.603C215.889 340.002 213.306 341.445 213.153 342.78C213.062 343.569 212.422 344.346 212.48 345.094C213.461 357.806 210.088 370.062 208.295 382.439C206.631 393.928 205.694 405.761 200.734 416.47C198.923 420.374 197.401 424.44 195.53 428.334C193.284 433.003 189.88 437.168 188.59 442.215C186.772 449.323 182.123 454.761 178.427 460.772C178.225 461.102 177.66 461.211 177.256 461.433C178.23 457.649 181.85 455.309 182.617 451.378C178.971 456.656 174.706 461.522 172.262 467.602C173.961 465.508 175.658 463.416 177.358 461.323Z" fill="#FF7B2E"/>
<path fill-rule="evenodd" clip-rule="evenodd" d="M105.533 161.562C113.793 158.395 120.902 153.357 127.694 147.809C120.326 152.426 113.047 157.184 105.533 161.562ZM155.325 130.988C155.119 130.679 154.913 130.371 154.707 130.062C147.111 134.992 139.067 139.217 132.177 145.263L155.325 130.988ZM-49.3489 425.09C-53.8518 428.285 -57.5889 439.892 -55.4597 442.763C-53.735 436.858 -52.6769 430.608 -49.3489 425.09ZM19.7408 190.237C9.6508 194.877 0.385519 200.583 -5.31521 210.662C2.36248 203.022 10.562 196.042 19.7408 190.237ZM169.522 122.113C186.658 112.755 204.31 104.854 223.344 100.328C211.433 99.9351 175.554 115.928 169.522 122.113ZM117.118 404.508C112.293 411.142 108.76 418.519 105.342 425.897C101.846 433.442 97.6323 440.586 93.7871 447.925C90.1522 454.861 85.5008 461.267 81.2971 467.906C97.6709 449.225 106.422 426.339 117.118 404.508ZM6.6886 266.793C6.82286 266.358 6.83064 265.7 7.11897 265.536C7.64049 265.238 7.78298 265.848 8.03225 266.236C8.7392 267.329 8.09701 268.695 9.12447 269.843C11.0209 271.957 12.1595 274.411 12.7862 277.376C13.3207 279.904 15.569 282.05 16.9497 284.429C17.2585 284.958 17.6112 285.827 17.0035 286.406C15.8745 287.48 16.5491 288.006 17.5198 288.464C18.7195 289.027 19.2272 290.09 19.4721 291.257C20.3577 295.465 21.7869 299.558 21.523 303.988C21.3528 306.845 21.248 310.276 21.9481 312.498C23.8964 318.688 23.0015 324.725 21.777 330.397C20.6678 335.534 18.7912 340.672 18.168 345.898C17.6288 350.414 14.7679 353.692 13.4472 357.761C11.8483 362.687 7.61344 366.514 6.05083 371.65C5.08907 374.805 1.27714 376.689 0.882267 379.249C-0.032131 385.165 -5.79048 387.474 -7.59894 392.645C-8.17408 394.29 -9.28952 396.711 -11.03 398.078C-14.6059 400.882 -16.2516 405.313 -19.9331 408.086C-24.5686 411.58 -27.5403 416.794 -32.4324 420.213C-35.3709 422.268 -37.8769 425.132 -40.5618 427.612C-42.9937 429.855 -43.4778 433.88 -44.7057 437.176C-46.4844 441.947 -44.2935 446.257 -43.7366 450.8C-42.4051 461.655 -37.4683 471.265 -31.1716 479.404C-18.8748 495.3 -2.20047 502.622 18.3296 498.783C20.4139 498.393 22.4965 497.998 24.5892 497.662C36.8607 495.69 47.9737 490.908 58.6157 484.541C72.5426 476.208 80.7226 462.72 89.7569 450.168C92.9171 445.778 94.8113 440.067 97.4795 435.053C99.3062 431.62 101.226 428.208 102.687 424.616C104.16 420.994 105.924 417.53 107.66 414.049C109.392 410.574 111.562 407.301 113.069 403.738C114.41 400.57 116.523 397.892 117.775 394.585C119.448 390.165 121.697 385.858 123.697 381.501C130.888 365.832 136.989 349.761 141.809 333.196C144.479 324.016 146.862 314.698 150.331 305.814C161.541 277.1 179.61 253.088 202.407 232.596C212.596 223.438 223.231 214.771 233.763 206C248.843 193.441 258.603 177.132 266.813 159.686C271.918 148.84 273.23 137.504 270.877 125.827C269.535 119.172 266.855 113.356 259.573 110.876C252.793 108.567 245.716 109.088 238.922 109.212C234.882 109.287 230.303 110.442 226.054 111.691C215.859 114.689 205.573 117.411 196.264 122.693C194.048 123.949 191.58 123.756 189.365 125.011C186.531 126.617 184.331 129.055 181.303 130.418C179.565 131.198 177.673 130.988 176.008 132.082C165.451 139.016 153.924 144.408 144.089 152.514C140.675 155.329 136.685 157.436 133.049 159.996C119.4 169.603 104.314 175.98 87.9983 179.074C67.9967 182.867 48.862 189.227 30.5205 197.835C23.5074 201.126 16.0875 204.096 10.4802 209.939C7.22898 213.329 3.21746 216.669 2.08161 220.982C0.399483 227.362 -1.38427 234.019 -0.250224 240.842C0.0234226 242.488 -1.28657 244.5 -1.04403 245.088C-0.107086 247.344 0.278568 249.783 1.33585 251.973C3.61843 256.707 7.13485 261.013 6.6886 266.793ZM-17.6526 391.168C-16.5974 390.959 -16.1861 390.007 -15.7116 389.269C-11.1959 382.26 -6.43125 375.387 -2.92583 367.785C-0.874985 363.337 2.10287 359.267 2.85995 354.258C-0.862473 362.722 -6.15997 370.31 -10.3856 378.486C-12.6278 382.825 -16.0825 386.487 -17.5895 391.249C-22.4489 395.844 -25.4544 401.833 -29.6166 406.953C-25.2827 401.95 -20.4019 397.353 -17.6526 391.168ZM133.798 394.741C133.801 393.868 134.06 393.134 133.283 392.566C132.915 393.85 131.654 394.924 133.196 396.359C134.092 397.192 132.965 398.118 132.574 398.881C129.049 405.741 125.583 412.643 122.136 419.528C118.856 426.083 115.177 432.475 112.403 439.286C111.011 442.705 108.758 445.612 106.896 448.747C106.04 450.187 105.29 451.572 105.012 453.245C104.446 456.647 104.195 456.696 101.347 454.385C101.108 454.193 100.696 454.216 100.276 454.119C100.213 454.497 100.034 454.852 100.13 455.099C101.583 458.763 100.495 462.686 97.605 465.503C95.6985 467.361 93.9277 469.268 92.7934 471.937C91.0882 475.956 87.671 478.773 83.8806 480.973C83.5363 481.173 82.8666 480.943 82.7377 481.52C81.977 484.94 78.9246 486.133 76.4882 487.84C74.1622 489.469 71.4584 490.493 69.2211 492.335C65.3918 495.49 61.2665 497.943 56.4503 499.668C54.2272 500.464 51.8026 502.274 49.3895 502.786C40.4733 504.677 31.6553 506.985 22.6684 508.634C7.48349 511.423 -6.36881 507.563 -20.0141 501.751C-28.0414 498.332 -34.9811 493.333 -41.0395 487.046C-43.3558 484.641 -45.0969 481.893 -46.8653 479.104C-53.6236 468.451 -57.6776 456.867 -58.5948 444.312C-59.1823 436.272 -56.7464 428.91 -51.7185 422.595C-50.3957 420.933 -49.2131 418.663 -45.845 419.649C-44.3779 420.078 -42.4296 417.54 -40.9748 415.965C-30.6893 404.832 -21.8089 392.667 -14.1167 379.615C-6.019 365.876 1.38328 351.864 5.90774 336.422C9.19239 325.214 9.4691 313.987 8.51525 302.486C7.75178 293.274 4.36639 285.117 0.294536 277.045C-2.75711 270.997 -5.3415 264.716 -8.33672 258.638C-9.39869 256.484 -7.45125 255.546 -6.63084 253.139C-9.24623 255.685 -9.4997 255.044 -10.0115 252.507C-10.5236 249.971 -11.8188 247.468 -12.7497 244.937C-14.7395 239.521 -15.4505 233.858 -14.5806 228.289C-14.2507 226.176 -15.0603 224.233 -14.4438 222.284C-13.6677 219.827 -13.0631 217.275 -11.9489 214.972C-9.98037 210.9 -8.44154 206.518 -3.77372 204.306C-2.4844 203.695 -2.75682 201.089 -1.20888 199.898C5.41565 194.796 11.7776 189.243 19.5516 185.935C38.0476 178.063 57.0741 171.902 76.6959 167.308C90.358 164.108 103.674 159.411 115.388 151.196C132.626 139.107 150.49 128.001 168.717 117.486C185.996 107.519 204.068 99.5045 223.864 95.9C232.175 94.3872 240.496 94.0518 248.903 94.8593C260.903 96.012 268.89 102.888 274.293 113.002C284.668 132.427 284.554 152.329 275.998 172.33C270.244 185.782 262.967 198.389 253.764 209.792C249.443 215.144 245.268 220.594 239.014 224.173C236.031 225.88 234.022 229.266 231.519 231.84C222.961 240.641 212.856 247.727 204.319 256.593C200.518 260.54 197.149 264.811 193.51 268.868C185.569 277.722 179.455 287.934 172.95 297.802C167.243 306.46 164.044 316.427 160.864 326.303C157.441 336.943 153.924 347.558 150.26 358.118C148.145 364.219 146.32 370.577 143.109 376.088C140.879 379.918 140.098 384.261 137.583 387.914C136.14 390.009 136.768 393.312 133.798 394.741Z" fill="#FF7B2E"/>
<path fill-rule="evenodd" clip-rule="evenodd" d="M102.592 343.578C102.911 343.819 103.23 344.062 103.549 344.303C105.164 341.515 108.703 339.928 107.911 335.622C106.138 338.274 104.366 340.926 102.592 343.578ZM54.3717 220.593C46.8693 220.751 38.2698 226.362 38.2568 231.129C42.7354 225.962 48.4537 223.125 54.3717 220.593ZM123.319 186.863C123.153 186.544 122.985 186.226 122.819 185.909C111.73 192.701 100.639 199.493 89.5502 206.286C89.7156 206.56 89.8823 206.834 90.0488 207.109L123.319 186.863ZM155.756 164.779C165.986 159.565 176.405 154.782 187.346 151.181C198.407 147.541 209.541 144.183 220.765 141.189C198.119 146.327 175.648 151.973 155.756 164.779ZM45.0663 425.998C48.1819 422.409 51.7425 419.379 54.4685 415.342C60.6383 406.208 67.481 397.523 73.452 388.23C82.3505 374.384 91.559 360.752 101.839 347.877C102.482 347.07 103.091 346.252 101.99 344.744C81.4361 371.001 65.1349 399.829 45.0663 425.998ZM154.115 180.336C149.701 181.492 147.01 185.127 143.559 187.669C139.313 189.276 136.499 192.973 132.601 195.119C125.881 198.818 119.029 202.341 112.621 206.534C99.3604 215.214 85.2239 221.753 70.0105 226.221C64.3626 227.881 58.1739 227.407 52.9805 231.037C49.8037 233.257 46.1231 234.867 45.1811 239.013C43.7847 245.157 43.7585 251.313 45.8212 257.386C49.6351 268.614 55.5824 278.863 60.4867 289.59C65.5833 300.738 69.9311 311.943 69.3964 324.682C68.8827 336.868 66.031 348.557 63.3594 360.297C62.818 362.675 60.8121 364.695 60.2615 367.461C59.4942 371.326 58.737 375.637 55.7411 378.41C50.3363 383.416 47.6967 390.178 43.7239 396.07C42.422 398.003 42.4951 401.181 40.3934 402.476C37.5882 404.205 36.4616 406.908 34.8429 409.398C34.212 410.37 33.402 411.318 32.4648 411.983C29.3721 414.181 27.1215 417.388 24.7726 420.092C20.1609 425.402 15.2514 429.965 9.38242 433.757C7.69118 434.851 5.39749 434.302 4.16827 436.242C2.9397 438.177 1.06084 439.448 -0.878799 440.601C-2.85947 441.779 -4.0659 443.549 -5.12889 445.678C-3.91571 446.256 -3.00705 445.873 -2.11688 445.704C3.4822 444.648 8.56199 441.988 14.0441 440.516C23.6603 437.935 32.1828 433.288 39.4651 426.393C44.9139 421.234 49.0561 415.06 53.3487 409.005C61.855 397.005 70.4571 385.062 78.5996 372.815C83.1605 365.954 87.8422 359.192 92.7276 352.576C100.845 341.585 108.346 330.175 115.716 318.695C121.619 309.501 126.839 299.879 130.904 289.678C134.451 280.771 139.414 272.596 144.301 264.392C153.605 248.771 163.011 233.235 176.202 220.413C188.053 208.893 200.015 197.483 211.045 185.143C219.278 175.933 226.709 166.219 231.476 154.712C231.987 153.478 233.219 151.951 232.284 150.826C231.492 149.872 229.809 150.673 228.563 150.941C215.503 153.754 202.748 157.568 190.236 162.278C187.976 163.128 185.696 165.522 182.761 163.679C182.346 163.419 181.312 163.889 181.494 164.469C182.136 166.519 180.285 166.188 179.496 166.539C174.514 168.761 169.578 171.064 164.679 173.468C160.847 175.348 157.887 178.443 154.115 180.336ZM23.4642 407.261C24.4649 407.356 24.8816 406.601 25.363 405.95C31.4533 397.699 36.4439 388.728 42.1425 380.225C44.876 376.143 45.072 370.733 49.0842 367.366C49.7706 366.789 49.6997 366.097 48.955 365.62C47.9781 364.994 47.2957 365.601 47.0349 366.441C46.0212 369.718 43.9316 372.392 42.3008 375.329C38.099 382.892 34.2885 390.64 29.1729 397.713C27.0469 400.654 24.7196 403.736 23.5323 407.351C20.0745 410.636 17.3567 414.48 15.0421 418.628C17.7261 414.749 22.0766 412.106 23.4642 407.261ZM180.399 232.53C181.293 234.843 180.651 236.096 179.476 237.997C176.611 242.632 171.799 245.848 170.09 251.266C169.482 253.2 167.695 254.44 166.476 255.95C163.374 259.793 162.093 264.652 159.25 268.426C156.553 272.007 154.962 276.155 152.239 279.641C150.793 281.492 150.762 284.09 148.99 285.824C147.796 286.991 144.015 294.865 143.47 296.41C142.102 300.304 140.623 304.16 139.151 308.016C138.898 308.678 138.473 309.331 137.565 309.029C136.628 308.718 136.09 309.078 136.317 309.994C137.168 313.426 135.041 316.02 133.393 318.33C128.601 325.043 124.245 332.038 119.861 338.997C118.992 340.376 116.169 339.493 116.708 342.619C116.98 344.197 114.871 346.503 113.388 348.24C111.944 349.935 110.834 351.91 109.484 353.692C99.543 366.831 90.1663 380.357 81.1226 394.132C76.1065 401.773 70.4372 408.981 65.2397 416.507C63.9271 418.409 62.9073 420.619 61.889 422.718C60.9531 424.645 59.5914 427.406 56.9037 428.269C56.4052 428.428 56.0844 428.59 55.856 429.036C51.2443 438.067 42.2822 441.703 34.1008 446.082C28.2433 449.218 21.5172 450.528 15.1657 452.312C11.2358 453.415 7.43039 455.578 3.08295 455.472C-1.27518 455.368 -5.63259 455.434 -9.96405 454.804C-14.1655 454.192 -17.8745 452.569 -20.9423 449.586C-22.5496 448.025 -22.5594 446.378 -21.4304 444.486C-18.6327 439.795 -14.9726 436.087 -9.91507 433.862C-7.97763 433.008 -5.94518 432.328 -4.47125 430.654C-3.41975 429.459 -2.29249 431.37 -0.498499 430.11C5.84927 425.65 10.332 419.689 14.9215 413.711C24.4274 401.328 32.21 387.858 39.8058 374.276C43.0921 368.398 45.3449 362.075 47.4561 355.692C48.7901 351.662 49.9128 347.594 50.8831 343.468C51.3315 341.555 52.3743 340.095 54.5533 341.667C55.8528 342.605 56.4602 341.648 57.2458 341.029C57.804 340.589 57.8062 339.981 57.4246 339.469C56.7275 338.539 55.8706 339.245 55.1703 339.453C52.2972 340.305 51.5568 339.389 52.1745 336.505C53.88 328.556 55.414 320.577 54.6414 312.357C54.2581 308.26 53.4302 304.254 52.1262 300.383C48.3158 289.062 42.7198 278.499 38.0391 267.546C34.6159 259.528 31.0604 251.49 31.5578 242.482C31.6729 240.385 30.4553 237.604 33.5811 236.406C33.754 236.341 33.9412 236.072 33.9595 235.882C34.7524 227.698 35.0362 227.537 41.4783 222.779C45.6589 219.691 50.4372 217.854 55.2109 216.552C72.7761 211.759 88.3414 203.127 103.744 193.68C122.494 182.179 140.059 168.79 159.313 158.2C180.405 146.602 203.412 140.076 227.212 136.881C239.775 135.195 247.149 145.586 242.483 157.558C237.823 169.511 231.201 180.323 223.129 190.315C213.864 201.785 203.664 212.415 193.704 223.247C190.972 226.22 188.524 229.529 185.356 232.164C183.713 233.53 182.458 234.761 180.399 232.53Z" fill="#FF7B2E"/>
<path fill-rule="evenodd" clip-rule="evenodd" d="M154.114 180.336C151.4 183.937 147.705 186.131 143.558 187.67C147.01 185.128 149.701 181.492 154.114 180.336Z" fill="#FF7B2E"/>
</svg>
