<svg width="254" height="310" viewBox="0 0 254 310" fill="none" xmlns="http://www.w3.org/2000/svg">
<path fill-rule="evenodd" clip-rule="evenodd" d="M40.6605 269.884C44.0714 258.722 43.7043 248.576 38.4995 238.909C34.6464 231.752 29.4883 231.421 24.2368 237.738C20.3987 242.353 18.1342 247.81 16.3487 253.48C13.667 261.994 16.7175 267.86 25.0411 270.917C28.3886 272.147 30.3227 271.354 30.9635 267.98C31.5175 265.06 32.6105 262.345 35.8228 262.482C39.414 262.637 39.142 266.195 39.8362 268.724C39.8729 268.859 40.0047 268.971 40.6605 269.884ZM54.4686 246.775C54.7272 264.704 49.933 279.121 40.583 292.067C38.5338 294.909 36.231 297.557 33.1955 299.389C28.9336 301.964 24.2327 300.566 22.9295 295.9C22.1985 293.276 20.917 292.721 18.6224 292.327C8.29296 290.555 0.46492 283.034 0.141186 272.746C-0.531315 251.428 6.10024 232.171 20.6583 216.54C31.2331 205.187 42.8275 207.889 49.4774 222.076C53.4223 230.495 54.4602 239.5 54.4686 246.775Z" fill="#FF8944"/>
<path fill-rule="evenodd" clip-rule="evenodd" d="M157.182 210.283C156.97 206.655 156.144 202.47 152.294 200.629C148.76 198.939 145.97 202.036 143.717 204.365C134.444 213.949 128.678 225.507 125.456 238.359C124.618 241.695 126.696 243.33 129.616 244.313C132.379 245.244 134.19 244.746 135.316 241.774C136.037 239.873 137.058 237.572 139.725 237.949C142.048 238.278 141.576 240.717 142.242 242.261C142.58 243.043 142.307 244.235 143.453 244.423C144.469 244.59 145.187 243.721 145.572 242.975C150.857 232.752 156.052 222.488 157.182 210.283ZM110.475 245.033C111.241 228.666 117.434 213.887 124.154 199.279C128.139 190.62 133.187 182.945 141.996 178.216C149.747 174.054 156.946 175.458 161.242 183.324C167.998 195.703 170.648 208.828 166.473 222.725C162.83 234.853 157.265 245.964 148.848 255.559C147.56 257.026 145.921 258.529 144.314 258.084C140.82 257.116 139.486 259.597 138.258 261.538C134.932 266.803 130.098 268.063 124.541 267.11C118.402 266.057 113.477 263.085 111.381 256.719C110.125 252.904 109.911 249.009 110.475 245.033Z" fill="#FF8944"/>
<path fill-rule="evenodd" clip-rule="evenodd" d="M49.888 159.184C51.2397 157.841 51.3031 156.437 51.5618 155.116C51.8555 153.619 52.9301 152.773 54.1483 153.494C57.1504 155.274 58.6005 153.126 60.2525 151.438C64.7114 146.884 68.7314 141.862 71.7168 136.319C74.9541 130.311 78.3817 124.107 77.5056 116.735C76.9616 112.151 76.5377 107.116 71.4564 105.599C66.25 104.046 62.3151 107.451 58.9025 111.089C58.6973 111.308 58.5638 111.592 58.3702 111.823C50.9293 120.81 47.6069 131.705 44.9419 142.675C43.5051 148.594 45.0937 154.56 49.888 159.184ZM30.2106 154.45C30.531 140.325 35.2151 127.408 40.49 114.498C44.1295 105.589 49.0023 97.7108 55.2233 90.5119C60.6701 84.2124 71.8272 81.696 79.4867 86.1949C82.3553 87.8803 82.8643 91.6083 85.9965 92.8765C82.3553 96.8331 87.8521 98.4851 88.1792 101.496C89.5125 113.709 89.132 125.45 83.3999 136.914C77.7896 148.14 70.4489 157.592 60.4598 165.051C59.3484 165.882 59.0581 166.8 58.9346 168.091C58.7627 169.877 58.5274 171.743 57.8482 173.378C53.945 182.788 47.4153 184.322 39.7975 177.565C32.8989 171.446 29.9603 163.578 30.2106 154.45Z" fill="#FF8944"/>
<path fill-rule="evenodd" clip-rule="evenodd" d="M291.094 145.755C290.91 143.436 291.282 140.774 288.918 139.614C286.715 138.535 284.951 140.492 283.307 141.752C281.006 143.518 279.117 145.727 277.584 148.173C271.486 157.904 267.468 168.422 265.706 179.803C265.26 182.69 265.202 186.267 268.042 186.811C271.042 187.385 275.349 188.086 277.185 183.594C277.695 182.342 278.335 181.096 279.147 180.021C286.812 169.855 288.572 157.68 291.094 145.755ZM253.944 181.897C254.94 166.203 259.566 150.411 268.056 135.761C269.117 133.934 270.404 132.239 271.469 130.413C275.776 123.032 282.574 120.114 290.711 119.913C293.521 119.845 295.088 122.071 296.356 124.414C300.945 132.893 302.115 141.944 300.241 151.246C296.526 169.675 289.616 186.853 279.195 202.573C277.333 205.384 274.94 207.691 272.488 209.898C269.718 212.391 267.36 211.449 266.422 207.784C266.102 206.528 266.194 205.069 264.442 204.588C257.453 202.669 256.52 196.342 254.786 190.785C254.04 188.388 254.266 185.69 253.944 181.897Z" fill="#FF8944"/>
<path fill-rule="evenodd" clip-rule="evenodd" d="M224.535 72.6298C220.814 75.9372 219.542 79.9372 217.553 83.5984C213.898 90.3334 212.245 97.4856 211.238 104.908C211.072 106.143 211.14 107.465 212.603 107.9C214.034 108.326 214.778 107.136 215.415 106.185C215.993 105.32 216.036 103.745 216.759 103.395C219.2 102.207 217.545 96.2091 222.766 98.3501C223.434 98.6221 224.054 97.4172 223.26 96.8282C219.792 94.2633 222.003 91.4532 222.95 88.8616C224.804 83.777 226.135 78.7074 224.535 72.6298ZM228.142 52.2578C223.163 54.5857 225.205 57.0004 228.089 58.0984C234.679 60.6115 235.091 66.6774 236.299 71.9389C237.072 75.3031 236.421 79.2396 235.538 82.6973C231.545 98.3467 224.352 112.609 215.7 126.146C214.277 128.376 211.77 129.829 210.343 132.215C209.726 133.245 208.531 133.911 207.189 133.457C205.864 133.008 205.477 132.072 205.624 130.617C205.896 127.903 204.715 125.856 202.719 123.892C197.222 118.488 197.736 111.228 198.317 104.599C199.797 87.6734 205.504 71.9856 214.744 57.7263C217.557 53.3826 221.482 50.0484 228.142 52.2578Z" fill="#FF8944"/>
<path fill-rule="evenodd" clip-rule="evenodd" d="M238.441 274.876C238.797 276.111 239.152 277.348 239.67 279.15C243.628 274.139 246.293 268.944 247.908 263.289C248.978 259.542 246.058 256.302 242.143 256.509C238.198 256.715 235.279 258.905 233.165 262.015C227.588 270.222 225.103 279.682 223.671 289.244C223.246 292.094 223.586 295.951 225.359 299.096C226.89 301.811 223.792 308.655 220.593 309.685C216.588 310.974 214.687 308.079 213.324 305.159C210.635 299.407 211.575 293.164 212.126 287.243C213.374 273.855 217.402 261.199 224.312 249.572C227.388 244.395 230.917 239.638 237.469 238.696C248.631 237.096 253.208 238.269 256.108 249.483C259.931 264.26 251.826 284.76 239.227 293.623C237.832 294.606 236.422 295.435 234.608 294.733C232.539 293.933 232.84 292.033 232.769 290.477C232.509 284.687 235.102 279.751 237.297 274.711C237.679 274.766 238.059 274.821 238.441 274.876Z" fill="#FF8944"/>
<path fill-rule="evenodd" clip-rule="evenodd" d="M161.231 0.0415802C164.803 -0.267136 167.417 1.13461 167.575 4.5455C167.852 10.5713 169.194 16.1883 167.438 22.7848C164.485 33.8836 159.947 43.8693 153.708 53.1525C150.953 57.2492 152.076 61.8032 150.337 65.8983C148.889 69.3092 147.183 72.4214 144.501 74.9712C142.764 76.6232 140.915 77.8614 138.439 76.438C136.114 75.103 135.143 73.6345 134.998 70.4189C134.09 50.3006 141.706 32.365 148.49 14.1758C149.992 10.1541 152.388 6.6915 154.886 3.24722C156.563 0.937691 158.591 -0.237099 161.231 0.0415802Z" fill="#FF8944"/>
</svg>
