<svg width="21" height="20" viewBox="0 0 21 20" fill="none" xmlns="http://www.w3.org/2000/svg">
<path d="M12.1634 1.67193C12.2406 1.38379 12.429 1.13808 12.6872 0.988824C12.9455 0.839567 13.2525 0.798982 13.5406 0.875994C14.9951 1.25489 16.3221 2.01492 17.3849 3.07769C18.4476 4.14046 19.2077 5.46749 19.5866 6.92193C19.6282 7.06571 19.6408 7.21637 19.6235 7.36507C19.6062 7.51376 19.5594 7.65751 19.4858 7.78789C19.4123 7.91827 19.3134 8.03266 19.1951 8.12436C19.0768 8.21605 18.9413 8.2832 18.7967 8.32188C18.6521 8.36057 18.5012 8.37 18.3529 8.34962C18.2046 8.32925 18.0619 8.27948 17.933 8.20323C17.8042 8.12698 17.6919 8.02579 17.6027 7.90558C17.5135 7.78537 17.4491 7.64857 17.4134 7.50318C17.1341 6.43182 16.5741 5.45432 15.7911 4.67142C15.0082 3.88851 14.0307 3.32851 12.9594 3.04912C12.6712 2.97198 12.4255 2.78357 12.2763 2.52532C12.127 2.26706 12.0864 1.9601 12.1634 1.67193ZM20.3609 14.6732C20.1822 16.0341 19.5141 17.2834 18.4816 18.1877C17.449 19.0921 16.1226 19.5897 14.75 19.5876C7.09907 19.5876 0.875007 13.3635 0.875007 5.71256C0.87288 4.33996 1.37046 3.01353 2.27482 1.98098C3.17918 0.948437 4.42848 0.280394 5.78938 0.101619C6.19037 0.0528932 6.59638 0.134635 6.94727 0.334733C7.29816 0.534831 7.57526 0.842641 7.73751 1.21256L9.71657 5.63099C9.71867 5.63679 9.72118 5.64242 9.72407 5.64787C9.84569 5.93214 9.89513 6.24207 9.86798 6.55007C9.84083 6.85807 9.73793 7.15458 9.56844 7.41318C9.54432 7.45086 9.5177 7.48688 9.48876 7.52099L7.70188 9.65006C8.36376 10.8538 9.62376 12.1026 10.8416 12.7635L12.9331 10.9822C12.9667 10.9541 13.0018 10.9278 13.0381 10.9035C13.2976 10.7294 13.5967 10.6232 13.9079 10.5947C14.2192 10.5662 14.5326 10.6163 14.8194 10.7404L14.8363 10.7479L19.25 12.7251C19.6198 12.8874 19.9275 13.1645 20.1276 13.5154C20.3277 13.8663 20.4095 14.2722 20.3609 14.6732ZM18.0819 14.6676L14.1444 12.9041L12.0416 14.6919C12.0085 14.7206 11.9738 14.7472 11.9375 14.7716C11.6672 14.9508 11.355 15.0569 11.0315 15.0794C10.7079 15.1019 10.3841 15.0401 10.0916 14.9001C8.26532 14.0188 6.44563 12.2113 5.56251 10.4001C5.42207 10.1088 5.35932 9.78627 5.38034 9.46365C5.40137 9.14103 5.50546 8.82932 5.68251 8.55881C5.70695 8.52111 5.73388 8.48509 5.76313 8.45099L7.55938 6.32099L5.79501 2.38349C5.03695 2.55055 4.35882 2.97181 3.87315 3.57735C3.38749 4.1829 3.1235 4.93631 3.12501 5.71256C3.12873 8.79456 4.3547 11.7493 6.534 13.9286C8.7133 16.1079 11.668 17.3338 14.75 17.3376C15.5267 17.3397 16.2808 17.076 16.8869 16.5903C17.493 16.1046 17.9147 15.4261 18.0819 14.6676ZM11.9028 6.60037C12.3629 6.74538 12.7812 6.99919 13.1223 7.34028C13.4634 7.68137 13.7172 8.09968 13.8622 8.55974C13.934 8.788 14.0767 8.98743 14.2695 9.12905C14.4624 9.27066 14.6954 9.3471 14.9347 9.34724C15.0495 9.3471 15.1635 9.32972 15.2731 9.29568C15.5566 9.20599 15.7931 9.00771 15.9308 8.74421C16.0685 8.4807 16.0963 8.17338 16.0081 7.88943C15.7544 7.08391 15.3101 6.35148 14.7129 5.7543C14.1158 5.15713 13.3833 4.71283 12.5778 4.45912C12.4361 4.41155 12.2862 4.39272 12.1371 4.40373C11.988 4.41474 11.8425 4.45537 11.7093 4.52325C11.576 4.59112 11.4577 4.68488 11.3611 4.79904C11.2645 4.9132 11.1916 5.04547 11.1468 5.18811C11.1019 5.33076 11.0859 5.48092 11.0998 5.62981C11.1136 5.77871 11.157 5.92335 11.2274 6.05528C11.2978 6.18721 11.3938 6.30378 11.5097 6.39818C11.6257 6.49257 11.7593 6.5629 11.9028 6.60506V6.60037Z" fill="white"/>
<path d="M12.1634 1.67193C12.2406 1.38379 12.429 1.13808 12.6872 0.988824C12.9455 0.839567 13.2525 0.798982 13.5406 0.875994C14.9951 1.25489 16.3221 2.01492 17.3849 3.07769C18.4476 4.14046 19.2077 5.46749 19.5866 6.92193C19.6282 7.06571 19.6408 7.21637 19.6235 7.36507C19.6062 7.51376 19.5594 7.65751 19.4858 7.78789C19.4123 7.91827 19.3134 8.03266 19.1951 8.12436C19.0768 8.21605 18.9413 8.2832 18.7967 8.32188C18.6521 8.36057 18.5012 8.37 18.3529 8.34962C18.2046 8.32925 18.0619 8.27948 17.933 8.20323C17.8042 8.12698 17.6919 8.02579 17.6027 7.90558C17.5135 7.78537 17.4491 7.64857 17.4134 7.50318C17.1341 6.43182 16.5741 5.45432 15.7911 4.67142C15.0082 3.88851 14.0307 3.32851 12.9594 3.04912C12.6712 2.97198 12.4255 2.78357 12.2763 2.52532C12.127 2.26706 12.0864 1.9601 12.1634 1.67193ZM20.3609 14.6732C20.1822 16.0341 19.5141 17.2834 18.4816 18.1877C17.449 19.0921 16.1226 19.5897 14.75 19.5876C7.09907 19.5876 0.875007 13.3635 0.875007 5.71256C0.87288 4.33996 1.37046 3.01353 2.27482 1.98098C3.17918 0.948437 4.42848 0.280394 5.78938 0.101619C6.19037 0.0528932 6.59638 0.134635 6.94727 0.334733C7.29816 0.534831 7.57526 0.842641 7.73751 1.21256L9.71657 5.63099C9.71867 5.63679 9.72118 5.64242 9.72407 5.64787C9.84569 5.93214 9.89513 6.24207 9.86798 6.55007C9.84083 6.85807 9.73793 7.15458 9.56844 7.41318C9.54432 7.45086 9.5177 7.48688 9.48876 7.52099L7.70188 9.65006C8.36376 10.8538 9.62376 12.1026 10.8416 12.7635L12.9331 10.9822C12.9667 10.9541 13.0018 10.9278 13.0381 10.9035C13.2976 10.7294 13.5967 10.6232 13.9079 10.5947C14.2192 10.5662 14.5326 10.6163 14.8194 10.7404L14.8363 10.7479L19.25 12.7251C19.6198 12.8874 19.9275 13.1645 20.1276 13.5154C20.3277 13.8663 20.4095 14.2722 20.3609 14.6732ZM18.0819 14.6676L14.1444 12.9041L12.0416 14.6919C12.0085 14.7206 11.9738 14.7472 11.9375 14.7716C11.6672 14.9508 11.355 15.0569 11.0315 15.0794C10.7079 15.1019 10.3841 15.0401 10.0916 14.9001C8.26532 14.0188 6.44563 12.2113 5.56251 10.4001C5.42207 10.1088 5.35932 9.78627 5.38034 9.46365C5.40137 9.14103 5.50546 8.82932 5.68251 8.55881C5.70695 8.52111 5.73388 8.48509 5.76313 8.45099L7.55938 6.32099L5.79501 2.38349C5.03695 2.55055 4.35882 2.97181 3.87315 3.57735C3.38749 4.1829 3.1235 4.93631 3.12501 5.71256C3.12873 8.79456 4.3547 11.7493 6.534 13.9286C8.7133 16.1079 11.668 17.3338 14.75 17.3376C15.5267 17.3397 16.2808 17.076 16.8869 16.5903C17.493 16.1046 17.9147 15.4261 18.0819 14.6676ZM11.9028 6.60037C12.3629 6.74538 12.7812 6.99919 13.1223 7.34028C13.4634 7.68137 13.7172 8.09968 13.8622 8.55974C13.934 8.788 14.0767 8.98743 14.2695 9.12905C14.4624 9.27066 14.6954 9.3471 14.9347 9.34724C15.0495 9.3471 15.1635 9.32972 15.2731 9.29568C15.5566 9.20599 15.7931 9.00771 15.9308 8.74421C16.0685 8.4807 16.0963 8.17338 16.0081 7.88943C15.7544 7.08391 15.3101 6.35148 14.7129 5.7543C14.1158 5.15713 13.3833 4.71283 12.5778 4.45912C12.4361 4.41155 12.2862 4.39272 12.1371 4.40373C11.988 4.41474 11.8425 4.45537 11.7093 4.52325C11.576 4.59112 11.4577 4.68488 11.3611 4.79904C11.2645 4.9132 11.1916 5.04547 11.1468 5.18811C11.1019 5.33076 11.0859 5.48092 11.0998 5.62981C11.1136 5.77871 11.157 5.92335 11.2274 6.05528C11.2978 6.18721 11.3938 6.30378 11.5097 6.39818C11.6257 6.49257 11.7593 6.5629 11.9028 6.60506V6.60037Z" fill="url(#paint0_linear_797_26921)"/>
<defs>
<linearGradient id="paint0_linear_797_26921" x1="0.875" y1="6.24896" x2="15.787" y2="21.2611" gradientUnits="userSpaceOnUse">
<stop stop-color="#FF3720"/>
<stop offset="1" stop-color="#EB7328"/>
</linearGradient>
</defs>
</svg>
