<svg width="24" height="25" viewBox="0 0 24 25" fill="none" xmlns="http://www.w3.org/2000/svg">
<path d="M13.1634 4.67187C13.2406 4.38373 13.429 4.13802 13.6872 3.98876C13.9455 3.83951 14.2525 3.79892 14.5406 3.87593C15.9951 4.25483 17.3221 5.01486 18.3849 6.07763C19.4476 7.1404 20.2077 8.46743 20.5866 9.92187C20.6282 10.0657 20.6408 10.2163 20.6235 10.365C20.6062 10.5137 20.5594 10.6575 20.4858 10.7878C20.4123 10.9182 20.3134 11.0326 20.1951 11.1243C20.0768 11.216 19.9413 11.2831 19.7967 11.3218C19.6521 11.3605 19.5012 11.3699 19.3529 11.3496C19.2046 11.3292 19.0619 11.2794 18.933 11.2032C18.8042 11.1269 18.6919 11.0257 18.6027 10.9055C18.5135 10.7853 18.4491 10.6485 18.4134 10.5031C18.1341 9.43176 17.5741 8.45426 16.7911 7.67135C16.0082 6.88845 15.0307 6.32845 13.9594 6.04906C13.6712 5.97192 13.4255 5.78351 13.2763 5.52526C13.127 5.267 13.0864 4.96004 13.1634 4.67187ZM21.3609 17.6731C21.1822 19.034 20.5141 20.2833 19.4816 21.1877C18.449 22.092 17.1226 22.5896 15.75 22.5875C8.09907 22.5875 1.87501 16.3634 1.87501 8.7125C1.87288 7.3399 2.37046 6.01347 3.27482 4.98092C4.17918 3.94838 5.42848 3.28033 6.78938 3.10156C7.19037 3.05283 7.59638 3.13457 7.94727 3.33467C8.29816 3.53477 8.57526 3.84258 8.73751 4.2125L10.7166 8.63093C10.7187 8.63672 10.7212 8.64236 10.7241 8.64781C10.8457 8.93208 10.8951 9.24201 10.868 9.55001C10.8408 9.85801 10.7379 10.1545 10.5684 10.4131C10.5443 10.4508 10.5177 10.4868 10.4888 10.5209L8.70188 12.65C9.36376 13.8537 10.6238 15.1025 11.8416 15.7634L13.9331 13.9822C13.9667 13.9541 14.0018 13.9278 14.0381 13.9034C14.2976 13.7293 14.5967 13.6231 14.9079 13.5946C15.2192 13.5661 15.5326 13.6162 15.8194 13.7403L15.8363 13.7478L20.25 15.725C20.6198 15.8874 20.9275 16.1645 21.1276 16.5153C21.3277 16.8662 21.4095 17.2722 21.3609 17.6731ZM19.0819 17.6675L15.1444 15.9041L13.0416 17.6919C13.0085 17.7205 12.9738 17.7471 12.9375 17.7716C12.6672 17.9508 12.355 18.0568 12.0315 18.0793C11.7079 18.1019 11.3841 18.0401 11.0916 17.9C9.26532 17.0187 7.44563 15.2112 6.56251 13.4C6.42207 13.1088 6.35932 12.7862 6.38034 12.4636C6.40137 12.141 6.50546 11.8293 6.68251 11.5587C6.70695 11.5211 6.73388 11.485 6.76313 11.4509L8.55938 9.32093L6.79501 5.38343C6.03695 5.55049 5.35882 5.97175 4.87315 6.57729C4.38749 7.18284 4.1235 7.93625 4.12501 8.7125C4.12873 11.7945 5.3547 14.7492 7.534 16.9285C9.7133 19.1078 12.668 20.3338 15.75 20.3375C16.5267 20.3396 17.2808 20.0759 17.8869 19.5902C18.493 19.1045 18.9147 18.426 19.0819 17.6675ZM12.9028 9.60031C13.3629 9.74532 13.7812 9.99913 14.1223 10.3402C14.4634 10.6813 14.7172 11.0996 14.8622 11.5597C14.934 11.7879 15.0767 11.9874 15.2695 12.129C15.4624 12.2706 15.6954 12.347 15.9347 12.3472C16.0495 12.347 16.1635 12.3297 16.2731 12.2956C16.5566 12.2059 16.7931 12.0077 16.9308 11.7441C17.0685 11.4806 17.0963 11.1733 17.0081 10.8894C16.7544 10.0838 16.3101 9.35142 15.7129 8.75424C15.1158 8.15706 14.3833 7.71277 13.5778 7.45906C13.4361 7.41149 13.2862 7.39266 13.1371 7.40367C12.988 7.41468 12.8425 7.45531 12.7093 7.52319C12.576 7.59106 12.4577 7.68482 12.3611 7.79898C12.2645 7.91314 12.1916 8.04541 12.1468 8.18805C12.1019 8.3307 12.0859 8.48086 12.0998 8.62975C12.1136 8.77864 12.157 8.92329 12.2274 9.05521C12.2978 9.18714 12.3938 9.30372 12.5097 9.39811C12.6257 9.49251 12.7593 9.56284 12.9028 9.60499V9.60031Z" fill="white"/>
</svg>
