<svg width="31" height="32" viewBox="0 0 31 32" fill="none" xmlns="http://www.w3.org/2000/svg">
<path d="M28 0.712402H3C2.33696 0.712402 1.70107 0.975794 1.23223 1.44464C0.763392 1.91348 0.5 2.54936 0.5 3.2124V11.9624C0.5 20.1999 4.4875 25.1921 7.83281 27.9296C11.4359 30.8765 15.0203 31.8765 15.1766 31.9187C15.3914 31.9771 15.618 31.9771 15.8328 31.9187C15.9891 31.8765 19.5688 30.8765 23.1766 27.9296C26.5125 25.1921 30.5 20.1999 30.5 11.9624V3.2124C30.5 2.54936 30.2366 1.91348 29.7678 1.44464C29.2989 0.975794 28.663 0.712402 28 0.712402ZM28 11.9624C28 17.7546 25.8656 22.4562 21.6562 25.9343C19.8239 27.4432 17.7399 28.6174 15.5 29.403C13.2894 28.6311 11.2312 27.4777 9.41875 25.9952C5.15938 22.5108 3 17.7905 3 11.9624V3.2124H28V11.9624ZM8.36562 16.5968C8.13107 16.3622 7.9993 16.0441 7.9993 15.7124C7.99931 15.3807 8.13107 15.0626 8.36562 14.828C8.60017 14.5935 8.91829 14.4617 9.25 14.4617C9.58171 14.4617 9.89983 14.5935 10.1344 14.828L13 17.6952L20.8656 9.82803C20.9818 9.71189 21.1196 9.61976 21.2714 9.55691C21.4231 9.49406 21.5858 9.46171 21.75 9.46171C21.9142 9.46171 22.0769 9.49406 22.2286 9.55691C22.3804 9.61976 22.5182 9.71189 22.6344 9.82803C22.7505 9.94416 22.8426 10.082 22.9055 10.2338C22.9683 10.3855 23.0007 10.5482 23.0007 10.7124C23.0007 10.8766 22.9683 11.0393 22.9055 11.191C22.8426 11.3428 22.7505 11.4806 22.6344 11.5968L13.8844 20.3468C13.7683 20.463 13.6304 20.5552 13.4787 20.6181C13.3269 20.681 13.1643 20.7134 13 20.7134C12.8357 20.7134 12.6731 20.681 12.5213 20.6181C12.3696 20.5552 12.2317 20.463 12.1156 20.3468L8.36562 16.5968Z" fill="#FEFAF5"/>
</svg>
