<svg width="22" height="31" viewBox="0 0 22 31" fill="none" xmlns="http://www.w3.org/2000/svg">
<path d="M21.5 11.4625C21.5002 9.44979 20.9219 7.47944 19.834 5.78608C18.7462 4.09273 17.1945 2.74772 15.3639 1.91122C13.5333 1.07473 11.5008 0.782004 9.50848 1.06791C7.5162 1.35381 5.64806 2.20629 4.12654 3.52383C2.60501 4.84138 1.49422 6.56846 0.926449 8.49941C0.358673 10.4304 0.357835 12.4838 0.924035 14.4152C1.49023 16.3466 2.59961 18.0746 4.12006 19.3934C5.6405 20.7122 7.50795 21.5662 9.5 21.8537V23.9625H6C5.60218 23.9625 5.22064 24.1205 4.93934 24.4018C4.65804 24.6831 4.5 25.0647 4.5 25.4625C4.5 25.8603 4.65804 26.2418 4.93934 26.5231C5.22064 26.8045 5.60218 26.9625 6 26.9625H9.5V29.4625C9.5 29.8603 9.65804 30.2418 9.93934 30.5231C10.2206 30.8045 10.6022 30.9625 11 30.9625C11.3978 30.9625 11.7794 30.8045 12.0607 30.5231C12.342 30.2418 12.5 29.8603 12.5 29.4625V26.9625H16C16.3978 26.9625 16.7794 26.8045 17.0607 26.5231C17.342 26.2418 17.5 25.8603 17.5 25.4625C17.5 25.0647 17.342 24.6831 17.0607 24.4018C16.7794 24.1205 16.3978 23.9625 16 23.9625H12.5V21.8537C14.9975 21.4901 17.2809 20.2403 18.9333 18.3325C20.5856 16.4248 21.4966 13.9863 21.5 11.4625ZM3.5 11.4625C3.5 9.97913 3.93987 8.52908 4.76398 7.29571C5.58809 6.06234 6.75943 5.10105 8.12987 4.53339C9.50032 3.96573 11.0083 3.81721 12.4632 4.1066C13.918 4.39599 15.2544 5.11029 16.3033 6.15919C17.3522 7.20808 18.0665 8.54445 18.3559 9.99931C18.6453 11.4542 18.4968 12.9622 17.9291 14.3326C17.3614 15.7031 16.4001 16.8744 15.1668 17.6985C13.9334 18.5226 12.4834 18.9625 11 18.9625C9.01159 18.9602 7.10528 18.1693 5.69926 16.7632C4.29324 15.3572 3.50232 13.4509 3.5 11.4625Z" fill="#FEFAF5"/>
</svg>
