<svg width="20" height="21" viewBox="0 0 20 21" fill="none" xmlns="http://www.w3.org/2000/svg">
<path fill-rule="evenodd" clip-rule="evenodd" d="M10.7714 0.0379765C9.02551 0.101819 8.22826 0.352095 7.52573 1.05694C7.25259 1.33095 7.13627 1.4889 6.9946 1.77798C6.66254 2.45564 6.55698 3.05862 6.51796 4.50144C6.49327 5.41253 6.49801 5.51992 6.56935 5.67026C6.74707 6.04482 7.23425 6.17904 7.58164 5.94919C7.85317 5.76946 7.88531 5.65353 7.91714 4.73931C7.98861 2.68589 8.1902 2.10372 8.94987 1.75686C9.54514 1.48502 10.2706 1.42954 13.2274 1.42967C16.2243 1.42985 17.0562 1.49613 17.6107 1.77902C17.8355 1.89373 18.1026 2.16082 18.2173 2.38562C18.3596 2.66455 18.4746 3.2326 18.5221 3.8911C18.5806 4.70225 18.5806 15.3152 18.5221 16.1264C18.4746 16.7849 18.3596 17.3529 18.2173 17.6319C18.1026 17.8567 17.8355 18.1237 17.6107 18.2385C17.0573 18.5208 16.2228 18.5877 13.2537 18.5877C10.2793 18.5877 9.5437 18.5318 8.94987 18.2606C8.1902 17.9137 7.98861 17.3316 7.91714 15.2782C7.88531 14.3639 7.85317 14.248 7.58164 14.0683C7.23425 13.8384 6.74707 13.9727 6.56935 14.3472C6.49801 14.4975 6.49327 14.6049 6.51796 15.516C6.55698 16.9589 6.66254 17.5618 6.9946 18.2395C7.13627 18.5286 7.25259 18.6865 7.52573 18.9605C8.03869 19.4752 8.57016 19.7234 9.48421 19.8751C10.6466 20.068 15.9252 20.0662 17.0207 19.8725C18.056 19.6895 18.7317 19.3299 19.1925 18.7168C19.7157 18.0209 19.8955 17.2924 19.9607 15.6048C20.0131 14.2484 20.0131 5.76907 19.9607 4.41269C19.8955 2.72508 19.7157 1.99659 19.1925 1.30072C18.7317 0.687597 18.056 0.328013 17.0207 0.144976C16.2715 0.0125439 12.9994 -0.0435037 10.7714 0.0379765ZM10.1273 6.59746C9.83648 6.74078 9.68497 7.08072 9.77042 7.39811C9.8286 7.61406 9.9204 7.70617 10.9617 8.59339L11.7795 9.29018L6.10398 9.31195L0.428547 9.33373L0.286359 9.43515C-0.116164 9.72223 -0.089164 10.3766 0.334786 10.6086C0.46221 10.6783 0.87819 10.6853 6.12554 10.7055L11.779 10.7273L10.8227 11.5452C10.1846 12.0909 9.8468 12.4097 9.80761 12.5033C9.66542 12.8424 9.81693 13.2711 10.1318 13.4205C10.3346 13.5167 10.6305 13.5124 10.7932 13.4107C11.0475 13.252 14.1916 10.528 14.2948 10.3771C14.4158 10.2001 14.4378 9.92974 14.3485 9.71665C14.3078 9.6198 13.7637 9.12635 12.5724 8.10591C11.6278 7.29681 10.8116 6.61074 10.7587 6.58134C10.6228 6.50579 10.2964 6.5141 10.1273 6.59746Z" fill="black"/>
</svg>
