<svg width="17" height="17" viewBox="0 0 17 17" fill="none" xmlns="http://www.w3.org/2000/svg">
<path d="M16.3125 8.5C16.3125 8.74864 16.2137 8.9871 16.0379 9.16291C15.8621 9.33873 15.6236 9.4375 15.375 9.4375L9.4375 9.4375L9.4375 15.375C9.4375 15.6236 9.33873 15.8621 9.16291 16.0379C8.9871 16.2137 8.74864 16.3125 8.5 16.3125C8.25136 16.3125 8.0129 16.2137 7.83709 16.0379C7.66127 15.8621 7.5625 15.6236 7.5625 15.375L7.5625 9.4375L1.625 9.4375C1.37636 9.4375 1.1379 9.33873 0.962087 9.16291C0.786272 8.9871 0.6875 8.74864 0.6875 8.5C0.6875 8.25136 0.786272 8.0129 0.962087 7.83709C1.1379 7.66127 1.37636 7.5625 1.625 7.5625L7.5625 7.5625L7.5625 1.625C7.5625 1.37636 7.66127 1.1379 7.83709 0.962087C8.0129 0.786272 8.25136 0.6875 8.5 0.6875C8.74864 0.6875 8.9871 0.786272 9.16291 0.962087C9.33873 1.1379 9.4375 1.37636 9.4375 1.625L9.4375 7.5625L15.375 7.5625C15.6236 7.5625 15.8621 7.66127 16.0379 7.83709C16.2137 8.0129 16.3125 8.25136 16.3125 8.5Z" fill="#A7D286"/>
</svg>
