<svg width="31" height="31" viewBox="0 0 31 31" fill="none" xmlns="http://www.w3.org/2000/svg">
<rect width="30.5792" height="30.5792" rx="15.2896" fill="white"/>
<path fill-rule="evenodd" clip-rule="evenodd" d="M23.4673 7.08215C23.3443 7.12884 22.7206 7.36779 22.0811 7.61309C21.4417 7.8584 17.4375 9.39233 13.1829 11.0218C8.92835 12.6513 5.39702 14.0104 5.33554 14.0422C5.27406 14.0739 5.17345 14.1536 5.11197 14.2194C5.01681 14.3213 5.00018 14.3817 5.00018 14.6254C5.00018 15.1264 4.92882 15.089 7.63199 16.0052C8.90729 16.4375 9.97798 16.7912 10.0112 16.7912C10.0444 16.7912 12.5122 15.2986 15.4951 13.4745C18.478 11.6503 20.9739 10.1489 21.0415 10.1382C21.1472 10.1213 21.1645 10.1337 21.1645 10.2269C21.1645 10.3133 20.3441 11.0911 17.1148 14.0663C14.8874 16.1183 13.018 17.8375 12.9605 17.8867C12.858 17.9743 12.8529 18.0192 12.6973 20.1669C12.5546 22.1379 12.5454 22.368 12.6061 22.4606C12.7012 22.6057 12.8703 22.6743 13.0074 22.6232C13.0687 22.6004 13.7015 22.0119 14.4136 21.3155C15.2794 20.4687 15.7269 20.0607 15.7647 20.0837C15.7957 20.1025 16.8482 20.896 18.1036 21.847C19.3589 22.7979 20.4495 23.6088 20.5271 23.6489C20.6047 23.6891 20.7706 23.7219 20.8958 23.7219C21.2639 23.7219 21.5603 23.5278 21.695 23.1983C21.7231 23.1297 22.482 19.7334 23.3814 15.6509C24.7259 9.54803 25.0136 8.18321 24.9995 7.97466C24.9506 7.2505 24.1902 6.80761 23.4673 7.08215Z" fill="url(#paint0_linear_2001_4597)"/>
<defs>
<linearGradient id="paint0_linear_2001_4597" x1="15" y1="23.7219" x2="15" y2="7" gradientUnits="userSpaceOnUse">
<stop stop-color="#1D93D2"/>
<stop offset="1" stop-color="#38B0E3"/>
</linearGradient>
</defs>
</svg>
